<svg width="25" height="24" viewBox="0 0 25 24" fill="none" xmlns="http://www.w3.org/2000/svg">
<g clip-path="url(#clip0_448_1800)">
<path d="M3.33331 8.86667C3.33331 7.7621 4.22874 6.86667 5.33331 6.86667H7.42521C8.08319 6.86667 8.69908 6.54303 9.07232 6.00115L9.16574 5.86552C9.53897 5.32364 10.1549 5 10.8128 5H13.8538C14.5118 5 15.1277 5.32363 15.5009 5.86552L15.5943 6.00115C15.9675 6.54303 16.5834 6.86667 17.2414 6.86667H19.3333C20.4379 6.86667 21.3333 7.7621 21.3333 8.86667V17C21.3333 18.1046 20.4379 19 19.3333 19H5.33331C4.22874 19 3.33331 18.1046 3.33331 17V8.86667Z" stroke="white" stroke-width="2" stroke-linecap="round"/>
<path d="M15.4762 12.5714C15.4762 14.3072 14.0691 15.7143 12.3333 15.7143C10.5976 15.7143 9.19046 14.3072 9.19046 12.5714C9.19046 10.8357 10.5976 9.42857 12.3333 9.42857C14.0691 9.42857 15.4762 10.8357 15.4762 12.5714Z" stroke="white" stroke-width="2" stroke-linecap="round"/>
<path d="M16.9048 10C16.9048 9.68441 17.1606 9.42857 17.4762 9.42857V9.42857C17.7918 9.42857 18.0476 9.68441 18.0476 10V10C18.0476 10.3156 17.7918 10.5714 17.4762 10.5714V10.5714C17.1606 10.5714 16.9048 10.3156 16.9048 10V10Z" fill="white"/>
</g>
<defs>
<clipPath id="clip0_448_1800">
<rect width="24" height="24" fill="white" transform="translate(0.333313)"/>
</clipPath>
</defs>
</svg>
