<svg fill="none" height="24" viewBox="0 0 24 24" width="24" xmlns="http://www.w3.org/2000/svg"><g stroke="#fff" stroke-linecap="round" stroke-width="2"><path d="m18.6667 9c1.8409 0 3.3333 1.567 3.3333 3.5 0 1.2732-.6474 2.3876-1.6154 3m-1.7179-6.5c1.3333-4-2-7-5.6667-7-3.66667 0-6.5 3-6 5.25m11.6667 1.75c-.7455 0-1.4338.25696-1.9891.69112-.1862.14565-.3575.31128-.5109.49378m-6.18007-.3099c-.09946-.23904-.21869-.46694-.35549-.68143-.74754-1.17199-2.02019-1.94357-3.46447-1.94357-2.30119 0-4.16667 1.95875-4.16667 4.375 0 1.583.80068 2.9696 2 3.7377"/><path d="m12 22v-7.5m0 0-3 3m3-3 3 3" stroke-linejoin="round"/></g></svg>