<svg width="24" height="24" viewBox="0 0 24 24" fill="none" xmlns="http://www.w3.org/2000/svg">
<path d="M7.99999 8.00002L7.00001 8.00001C6.05719 8.00001 5.58578 8 5.29289 8.2929C4.99999 8.58579 4.99999 9.0572 4.99999 10V18C4.99999 18.9428 4.99999 19.4142 5.29289 19.7071C5.58578 20 6.05718 20 6.99999 20H17C17.9428 20 18.4142 20 18.7071 19.7071C19 19.4142 19 18.9428 19 18V10C19 9.0572 19 8.5858 18.7071 8.29291C18.4142 8.00002 17.9428 8.00001 17 8.00001L16 8" stroke="white" stroke-width="2" stroke-linecap="round" stroke-linejoin="round"/>
<path d="M12 13V2M12 2L14.5 4.5M12 2L9.5 4.5" stroke="white" stroke-width="2" stroke-linecap="round" stroke-linejoin="round"/>
</svg>
