<svg fill="none" height="24" viewBox="0 0 24 24" width="24" xmlns="http://www.w3.org/2000/svg"><g stroke="#fff" stroke-linecap="round" stroke-linejoin="round" stroke-width="2"><path d="m5 8 1.0398 10.398c.17119 1.7119.25678 2.5678.82816 3.0849.57139.5171 1.43159.5171 3.15194.5171h3.9601c1.7205 0 2.5807 0 3.152-.5171.5714-.5171.657-1.373.8282-3.0849l1.0398-10.398"/><path d="m9 5c0-.93188 0-1.39782.15224-1.76537.20299-.49005.59234-.8794 1.08236-1.08239.3676-.15224.8335-.15224 1.7654-.15224.9319 0 1.3978 0 1.7654.15224.49.20299.8794.59234 1.0824 1.08239.1522.36755.1522.83349.1522 1.76537"/><path d="m19 5h-14"/></g></svg>