<svg fill="none" height="24" viewBox="0 0 24 24" width="24" xmlns="http://www.w3.org/2000/svg"><g stroke="#fff" stroke-linecap="round" stroke-linejoin="round" stroke-width="2"><path d="m5 8 .73464 10.285c.12583 1.7616.18875 2.6425.76469 3.1787.57595.5363 1.45902.5363 3.22515.5363h4.55102c1.7662 0 2.6492 0 3.2252-.5363.5759-.5362.6388-1.4171.7647-3.1787l.7346-10.285"/><path d="m9.5 9.5.5 8.5"/><path d="m14.5 9.5-.5 8.5"/><path d="m9 5c0-.93188 0-1.39782.15224-1.76537.20299-.49005.59234-.8794 1.08236-1.08239.3676-.15224.8335-.15224 1.7654-.15224.9319 0 1.3978 0 1.7654.15224.49.20299.8794.59234 1.0824 1.08239.1522.36755.1522.83349.1522 1.76537"/><path d="m19 5h-14"/></g></svg>