<svg width="18" height="18" viewBox="0 0 18 18" fill="none" xmlns="http://www.w3.org/2000/svg">
<path d="M14.0916 4.35422C14.2099 4.48269 14.3866 4.54019 14.5578 4.5059C14.8209 4.45318 15.099 4.31093 15.3155 4.19484C15.3851 4.15752 15.4507 4.12155 15.5132 4.08728C15.6723 4.00004 15.8114 3.92378 15.9452 3.86415C15.9624 3.85649 15.9787 3.84952 15.994 3.8432C15.9918 3.85627 15.989 3.87209 15.9851 3.89085C15.9719 3.95438 15.9507 4.03476 15.9211 4.12914C15.862 4.31781 15.775 4.54389 15.6697 4.77268C15.5642 5.00187 15.4446 5.22437 15.3229 5.40906C15.1961 5.60149 15.0881 5.72027 15.0145 5.77464C14.8806 5.87353 14.8047 6.03253 14.8121 6.19879C14.8179 6.33041 14.821 6.4626 14.821 6.59272C14.821 10.5864 11.8606 14.5 6.35785 14.5C5.51878 14.5 4.25899 14.3247 3.26033 14.0615C2.82878 13.9478 2.47469 13.8249 2.23233 13.7064C2.26578 13.6977 2.30219 13.6891 2.34173 13.6805C2.61672 13.621 2.95825 13.5813 3.3593 13.5347C3.42855 13.5267 3.49958 13.5184 3.57234 13.5098C4.04997 13.4534 4.58471 13.3836 5.08811 13.2565C5.58827 13.1301 6.09859 12.9376 6.50672 12.6108C6.63492 12.5081 6.70453 12.3491 6.69296 12.1852C6.68139 12.0214 6.5901 11.8737 6.44875 11.7901C4.71579 10.7651 3.82121 9.72793 3.34847 8.74072C2.87292 7.74763 2.79739 6.75182 2.79739 5.74535C2.79739 5.43827 2.80172 5.03218 2.91393 4.70739C2.96756 4.55214 3.03487 4.4504 3.10731 4.38874C3.17079 4.3347 3.26887 4.28439 3.44895 4.28439C3.52211 4.28439 3.67971 4.34435 4.00787 4.64692C4.15312 4.78084 4.30772 4.93816 4.48565 5.11922L4.50323 5.13711C4.68532 5.32238 4.88755 5.52756 5.10882 5.73388C5.99992 6.56476 7.23981 7.45199 9.09177 7.45199C9.24352 7.45199 9.38705 7.38308 9.48194 7.26467C9.57684 7.14626 9.61282 6.99116 9.57977 6.84306C9.53473 6.6413 9.51063 6.43324 9.51063 6.21963C9.51063 4.70705 10.7076 3.5 12.1604 3.5C12.9192 3.5 13.6063 3.82685 14.0916 4.35422ZM15.9873 3.67135C15.9875 3.67106 15.9886 3.67363 15.99 3.67992C15.9879 3.67478 15.9871 3.67164 15.9873 3.67135Z" fill="white" stroke="white" stroke-linejoin="round"/>
</svg>
