<svg viewBox="0 0 1965.25 2307.48" xmlns="http://www.w3.org/2000/svg"><path d="m1196.89 2.3c107.12 1.32 211.33 18.62 311.29 58 54.08 21.32 104.07 50.17 145.58 91.11 62.6 61.74 105.32 134.93 122.42 222.26 8.92 45.55 8.39 91.42 7.22 137.3-.59 22.86-3.58 45.75-7.32 68.43-.65 3.93-1 8-4 11.1a4.55 4.55 0 0 1 -3.24 1c-10.82-2.6-20.07-8.8-30.12-13.16-64.79-28.09-132.85-42.84-202.68-50.81-59.61-6.81-119.41-8-179.33-7.93q-261.2.45-522.39.06c-9.73 0-19.31.68-28.64 3.47-35.7 10.7-57.05 34.64-63.29 71.16-8.29 48.57-15.51 97.32-23.22 146q-40.73 257-81.26 514c-4.77 29.91-9.07 59.9-14.38 89.73a34.77 34.77 0 0 0 .15 9.93c-15.42 76.37-25.43 153.64-37.71 230.54q-30.71 192.32-60.73 384.74c-4.32 27.62-8.72 55.24-13.41 82.81-.82 4.85-1 10.13-6.22 13-4.46 1.82-9.16 1.5-13.8 1.5q-214.08 0-428.17 0c-30.05 0-54.25-17.3-62-43.88-1.22-4.31-2.56-19.79-.71-39.32 1.9-20 290.13-1847.2 297-1891.94 5.43-35.17 23.69-61.58 54.34-79.5a74.08 74.08 0 0 1 30.14-9.58c49.59-5.23 808.89-.02 814.48-.02z" fill="#223a7f"/><path d="m1965.25 928.43c-.56 11.35-.53 22.7 0 34-1.67 77-15.69 152-36.47 225.84-22.15 78.68-54.33 152.88-101 220.34q-79.92 115.44-204 181.28c-62.24 32.94-128.34 54.6-197.27 68.12a989.11 989.11 0 0 1 -126.49 16.2c-45.21 3-90.44 3.35-135.7 3-19.28-.15-36.88 4.55-52.73 15.44-23.38 16-35.44 38.83-39.73 66.48-9.29 59.77-71.53 452.3-77.27 484.37l-.15.81a77.19 77.19 0 0 1 -76 62.9c-128.47 0-327.75.16-398.36.25-26.55 0-47.17-23.42-43.4-49.7l.09-.59c6.6-43.57 120.56-763.56 125.42-794.7 4.72-30.15 9.35-60.31 14.34-90.42 1-6.17 3.47-12.1 5.26-18.14-.81-5.28 1.34-9.76 4.06-14 21.75-33.69 51.74-52.64 92.76-52.55 74.23.17 148.46.64 222.68-.1 95.42-1 189.88-10.63 282.48-35 101.75-26.72 195.24-70.23 276.79-137.46 62.51-51.52 113.57-112.82 154-183.09 58.34-101.49 91.92-211.38 111.66-326 .9-5.2 1-10.66 4.4-15.13a1.15 1.15 0 0 1 1.14.4c30.56 16.53 59.18 35.84 84.15 60.11 48 46.65 78.61 103.29 95.09 167.88a471.21 471.21 0 0 1 14.25 109.46z" fill="#0699d6"/><path d="m1770.62 590.62c-.17 13.37-3.48 26.3-6 39.29-12.36 64.77-29.41 128.25-53.5 189.72-29.58 75.48-68.26 145.69-120 208.44a649 649 0 0 1 -195.58 160.34c-69.35 37.27-143.11 62-220 78a1094.64 1094.64 0 0 1 -135.13 19.19c-37.13 3-74.38 4.55-111.67 4.48-68.9-.12-137.8.17-206.7-.1-47.35-.18-80.34 21.51-100.28 64-2.62-2.88-1.72-6.34-1.2-9.51 4.8-29.7 115-743.66 123.31-767.59 11.18-32.37 34.79-50.68 67.7-58.17 7.26-1.65 419.24-2 618-1.45 19.1 0 77.33 4.27 87.23 5.52 14.11 1.78 85.55 11.21 106.85 16 26.86 6.07 53.37 13.18 79.3 22.66 23.18 8.43 45.89 17.67 67.67 29.18z" fill="#272f64"/></svg>