<svg width="24" height="24" viewBox="0 0 24 24" fill="none" xmlns="http://www.w3.org/2000/svg">
<path d="M21.5 4.5C21 4.5 20.2397 5.16183 19.2794 5.35418C18.513 4.5214 17.4221 4 16.2139 4C13.8949 4 12.0142 5.92164 12.0142 8.29284C12.0142 8.62816 12.052 8.95427 12.1224 9.26932C7.66941 9.26932 6.134 5.04585 4.59859 5.04585C3.06318 5.04585 3.06318 6.8756 3.06318 7.66047C3.06318 10.4026 3.2061 13.1645 8 16C6.25003 17.4013 2.55138 18.119 2.03958 19.0719C1.52778 20.0249 6.10587 21 8.47713 21C15.6938 21 20.8136 17.1201 20.5 10C22.5 7.5 22 4.5 21.5 4.5Z" fill="white"/>
</svg>
