<svg fill="none" height="18" viewBox="0 0 18 18" width="18" xmlns="http://www.w3.org/2000/svg"><g stroke="#fff" stroke-linecap="round"><path d="m13.6667 12c1.2886 0 2.3333-1.1193 2.3333-2.5 0-1.38071-1.0447-2.5-2.3333-2.5m0 0c.9333-2.85714-1.4-5-3.9667-5-2.56667 0-4.55 2.14286-4.2 3.75m8.1667 1.25c-.6969 0-1.3225.32735-1.75.84636m-4.32606-.22136c-.45007-1.10369-1.47795-1.875-2.67397-1.875-1.61083 0-2.91667 1.39911-2.91667 3.125 0 1.3828.83825 2.5558 2 2.9675"/><path d="m9 16-.00001-5m0 0-1.99999 2m1.99999-2 2.00001 2" stroke-linejoin="round"/></g></svg>