<svg fill="none" height="17" viewBox="0 0 17 17" width="17" xmlns="http://www.w3.org/2000/svg"><path d="m7.99886 11.2273-3.77011-3.77187c-.13279-.13283-.20739-.31296-.20739-.50079 0-.18782.0746-.36796.20739-.50079l.09988-.09987c.1331-.13228.31314-.20652.50079-.20652s.36768.07424.50079.20652l3.16979 3.16908 3.1694-3.16908c.1331-.13228.3132-.20652.5008-.20652.1877 0 .3677.07424.5008.20652l.0999.09987c.1328.13283.2074.31297.2074.50079 0 .18783-.0746.36796-.2074.50079l-3.77011 3.77187c-.06577.0658-.14387.118-.22983.1536s-.17809.054-.27113.054c-.09305 0-.18518-.0184-.27114-.054s-.16405-.0878-.22983-.1536z" fill="#e3e3e3"/></svg>