<svg height="18" viewBox="0 0 18 18" width="18" xmlns="http://www.w3.org/2000/svg"><path d="m0 0h18v18h-18z" fill="#ff13dc" opacity="0"/><g fill="#6e6e6e"><path d="m16.5 5h-3a.5.5 0 0 0 -.5.5v1a.5.5 0 0 0 .5.5h1.5v8h-12v-8h1.5a.5.5 0 0 0 .5-.5v-1a.5.5 0 0 0 -.5-.5h-3a.5.5 0 0 0 -.5.5v11a.5.5 0 0 0 .5.5h15a.5.5 0 0 0 .5-.5v-11a.5.5 0 0 0 -.5-.5z"/><path d="m5.4 4h2.6v5.5a.5.5 0 0 0 .5.5h1a.5.5 0 0 0 .5-.5v-5.5h2.6a.4.4 0 0 0 .4-.4.39352.39352 0 0 0 -.1-.2635l-3.7245-3.2645a.25.25 0 0 0 -.35 0l-3.7255 3.262a.39353.39353 0 0 0 -.1.266.4.4 0 0 0 .4.4z"/></g></svg>