<svg fill="none" height="17" viewBox="0 0 17 17" width="17" xmlns="http://www.w3.org/2000/svg"><path d="m14.8668 15.5833c.1018.0015.2027-.0188.2959-.0596.0932-.0407.1766-.1011.2445-.1768.0679-.0758.1188-.1653.1492-.2624.0303-.0971.0395-.1996.0269-.3006-.4831-2.9332-3.5831-3.9464-4.5521-4.0304-.7349-.0637-.7466-.652-.7466-1.38512 0 0 1.5757-1.7503 1.5757-3.97694 0-2.40798-1.377-3.97481-3.36033-3.97481-1.98334 0-3.36034 1.56683-3.36034 3.97481 0 2.22664 1.57569 3.97694 1.57569 3.97694 0 .73312-.01169 1.32142-.74658 1.38512-.969.084-4.06902 1.0972-4.55211 4.0304-.01263.101-.00344.2035.02694.3006.03037.0971.08124.1866.14916.2624.06791.0757.1513.1361.24452.1768.09323.0408.19412.0611.29586.0596z" fill="#e3e3e3"/></svg>