<svg width="233" height="233" xmlns="http://www.w3.org/2000/svg"><path d="M116.283 42.15c2.746 0 5.103-1.002 7.07-3.005 1.966-2.004 2.95-4.342 2.95-7.014V10.42c0-2.671-.984-5.009-2.95-7.013-1.967-2.004-4.324-3.006-7.07-3.006-2.672 0-4.991 1.002-6.958 3.006-1.967 2.004-2.95 4.342-2.95 7.014V32.13c0 2.672.983 5.01 2.95 7.014 1.967 2.003 4.286 3.005 6.958 3.005zm59.56 24.827c2.821 0 5.196-.965 7.126-2.895l15.474-15.363c1.856-1.93 2.784-4.305 2.784-7.125 0-2.82-.965-5.196-2.895-7.125-1.855-1.93-4.193-2.876-7.014-2.84-2.82.038-5.158 1.021-7.013 2.951l-15.586 15.475c-1.856 1.93-2.783 4.267-2.783 7.013 0 2.746.927 5.121 2.783 7.125 1.93 1.856 4.304 2.784 7.125 2.784zm-119.176 0c2.783 0 5.14-.928 7.07-2.784 1.929-1.93 2.894-4.304 2.894-7.125 0-2.82-.928-5.158-2.783-7.013L48.484 34.58c-1.855-1.855-4.212-2.82-7.069-2.894-2.857-.075-5.177.853-6.958 2.783-2.004 1.93-3.006 4.304-3.006 7.125 0 2.82.928 5.158 2.783 7.013L49.71 64.082c1.855 1.93 4.175 2.895 6.958 2.895zm59.616 104.314c7.422 0 14.436-1.447 21.041-4.342 6.606-2.894 12.413-6.846 17.423-11.856 5.01-5.01 8.962-10.818 11.857-17.423 2.894-6.606 4.341-13.656 4.341-21.152 0-7.497-1.447-14.547-4.341-21.153-2.895-6.605-6.847-12.413-11.857-17.423-5.01-5.01-10.817-8.943-17.423-11.8-6.605-2.858-13.619-4.287-21.04-4.287-7.497 0-14.53 1.43-21.097 4.287-6.569 2.857-12.376 6.79-17.423 11.8-5.047 5.01-9 10.818-11.857 17.423-2.857 6.606-4.286 13.656-4.286 21.153 0 7.496 1.429 14.546 4.286 21.152 2.858 6.605 6.81 12.413 11.857 17.423 5.047 5.01 10.854 8.962 17.423 11.856 6.568 2.895 13.6 4.342 21.096 4.342zm105.985-44.754c2.671 0 4.99-.983 6.958-2.95 1.966-1.967 2.95-4.323 2.95-7.07 0-2.671-.984-4.99-2.95-6.957-1.967-1.967-4.287-2.95-6.958-2.95h-21.71c-2.745 0-5.102.983-7.069 2.95-1.967 1.966-2.95 4.286-2.95 6.958 0 2.746.983 5.102 2.95 7.069 1.967 1.967 4.323 2.95 7.07 2.95h21.709zm-190.149 0c2.672 0 4.991-.983 6.958-2.95 1.967-1.967 2.95-4.323 2.95-7.07 0-2.671-.983-4.99-2.95-6.957-1.967-1.967-4.286-2.95-6.958-2.95H10.41c-2.746 0-5.102.983-7.07 2.95-1.966 1.966-2.95 4.286-2.95 6.958 0 2.746.984 5.102 2.95 7.069 1.968 1.967 4.324 2.95 7.07 2.95h21.71zm159.255 74.924c2.783 0 5.14-.965 7.07-2.895 1.855-1.93 2.783-4.286 2.783-7.069 0-2.783-.928-5.102-2.784-6.958l-15.586-15.475c-1.93-1.855-4.286-2.783-7.069-2.783-2.783 0-5.14.928-7.07 2.783-1.855 1.93-2.782 4.287-2.782 7.07 0 2.783.927 5.14 2.783 7.07l15.697 15.474c1.855 1.855 4.175 2.783 6.958 2.783zm-150.237-.056c2.82.037 5.195-.909 7.125-2.839l15.474-15.363c1.93-1.93 2.895-4.286 2.895-7.07 0-2.782-.928-5.102-2.783-6.957-1.93-1.93-4.305-2.895-7.125-2.895-2.82 0-5.159.928-7.014 2.783l-15.586 15.364c-1.855 1.855-2.802 4.175-2.839 6.958-.037 2.783.91 5.14 2.839 7.07 1.856 1.929 4.193 2.912 7.014 2.95zm75.146 31.34c2.746 0 5.103-1.003 7.07-3.007 1.966-2.004 2.95-4.379 2.95-7.125v-21.597c0-2.746-.984-5.103-2.95-7.07-1.967-1.967-4.324-2.95-7.07-2.95-2.672 0-4.991.983-6.958 2.95-1.967 1.967-2.95 4.324-2.95 7.07v21.597c0 2.746.983 5.121 2.95 7.125 1.967 2.004 4.286 3.006 6.958 3.006z" fill="#4B4B4B"/></svg>