<svg width="217" height="218" xmlns="http://www.w3.org/2000/svg"><path d="M108.283 217.285c14.844 0 28.797-2.839 41.86-8.516 13.062-5.678 24.566-13.49 34.511-23.435 9.946-9.945 17.739-21.43 23.38-34.456 5.64-13.025 8.46-26.96 8.46-41.804 0-14.844-2.82-28.778-8.46-41.803-5.641-13.026-13.453-24.53-23.435-34.512-9.983-9.983-21.505-17.794-34.568-23.435-13.062-5.64-27.015-8.46-41.86-8.46-14.694 0-28.573 2.82-41.636 8.46-13.062 5.64-24.585 13.452-34.567 23.435C21.985 42.74 14.174 54.245 8.533 67.27 2.893 80.296.073 94.23.073 109.074c0 14.844 2.838 28.779 8.516 41.804 5.678 13.025 13.49 24.51 23.434 34.456 9.946 9.945 21.45 17.757 34.512 23.435 13.063 5.677 26.979 8.516 41.748 8.516zm2.783-45.533c-11.8 0-22.395-2.616-31.784-7.849-9.388-5.232-16.81-12.413-22.265-21.542-5.455-9.129-8.183-19.556-8.183-31.283 0-8.46 1.54-16.55 4.62-24.27 3.08-7.718 7.422-14.528 13.025-20.428 5.604-5.9 12.154-10.372 19.65-13.415a35.552 35.552 0 0 1 2.06-.557c.63-.148 1.168-.222 1.614-.222 1.187 0 2.096.39 2.727 1.168.631.78.947 1.652.947 2.617 0 .222-.038.593-.112 1.113-.074.52-.297 1.15-.668 1.893-.965 2.449-1.837 5.752-2.616 9.908-.78 4.156-1.169 7.941-1.169 11.355 0 10.762 2.171 20.058 6.513 27.888 4.342 7.83 10.446 13.86 18.313 18.09 7.867 4.231 17.182 6.346 27.944 6.346a57.3 57.3 0 0 0 10.798-1.001c3.489-.668 6.31-1.374 8.461-2.116 1.262-.37 2.264-.556 3.006-.556.965 0 1.819.334 2.56 1.002.743.668 1.114 1.558 1.114 2.671 0 .372-.037.891-.111 1.559-.074.668-.26 1.373-.557 2.115-2.672 6.606-6.754 12.58-12.246 17.924-5.492 5.344-11.986 9.611-19.482 12.803-7.496 3.191-15.55 4.787-24.159 4.787z" fill="#FFF"/></svg>