<svg width="18" height="18" viewBox="0 0 18 18" fill="none" xmlns="http://www.w3.org/2000/svg">
<path d="M11.7274 4V3C11.7067 3 11.686 3.00064 11.6653 3.00193L11.7274 4ZM6.27257 4L6.33472 3.00193C6.31403 3.00064 6.2933 3 6.27257 3L6.27257 4ZM3 7.45564H2H3ZM9 15L8.42249 15.8164C8.7671 16.0601 9.22766 16.0613 9.57346 15.8192L9 15ZM15 7.45564H14H15ZM9.00869 5.71289L9.87163 6.2182L9.00869 5.71289ZM8.99131 5.71289L8.12837 6.2182L8.99131 5.71289ZM11.6653 3.00193C10.9418 3.04698 10.2427 3.27607 9.62771 3.66564L10.698 5.35515C11.0329 5.143 11.4074 5.02186 11.7896 4.99807L11.6653 3.00193ZM9.62771 3.66564C9.01925 4.05109 8.51251 4.58125 8.14575 5.20759L9.87163 6.2182C10.0814 5.85995 10.3661 5.5654 10.698 5.35515L9.62771 3.66564ZM9.85425 5.20759C9.48749 4.58125 8.98075 4.05109 8.37229 3.66564L7.30199 5.35515C7.63387 5.5654 7.91859 5.85995 8.12837 6.2182L9.85425 5.20759ZM8.37229 3.66564C7.75734 3.27607 7.05824 3.04698 6.33472 3.00193L6.21043 4.99807C6.59264 5.02186 6.9671 5.143 7.30199 5.35515L8.37229 3.66564ZM6.27257 3C5.12131 3 4.02898 3.48342 3.23244 4.32452L4.68459 5.69975C5.11551 5.24473 5.68795 5 6.27257 5L6.27257 3ZM3.23244 4.32452C2.43765 5.16377 2 6.29096 2 7.45564L4 7.45564C4 6.78733 4.25193 6.15661 4.68459 5.69975L3.23244 4.32452ZM2 7.45564C2 8.56471 2.49463 9.6454 3.10004 10.5731C3.7169 11.5184 4.52186 12.415 5.2992 13.1787C6.08056 13.9463 6.85808 14.6029 7.43825 15.0665C7.72911 15.2989 7.97223 15.4843 8.14389 15.6124C8.22976 15.6765 8.29787 15.7264 8.34526 15.7608C8.36896 15.778 8.38749 15.7914 8.40049 15.8007C8.40698 15.8053 8.41209 15.809 8.41578 15.8116C8.41762 15.8129 8.4191 15.814 8.42022 15.8147C8.42078 15.8151 8.42125 15.8155 8.42163 15.8157C8.42182 15.8159 8.42204 15.816 8.42213 15.8161C8.42232 15.8162 8.42249 15.8164 9 15C9.57751 14.1836 9.57763 14.1837 9.57773 14.1837C9.57773 14.1837 9.57781 14.1838 9.57782 14.1838C9.57783 14.1838 9.57776 14.1838 9.57759 14.1836C9.57726 14.1834 9.57657 14.1829 9.57553 14.1822C9.57344 14.1807 9.56995 14.1782 9.56509 14.1747C9.55538 14.1678 9.54022 14.1569 9.51997 14.1422C9.47947 14.1128 9.41867 14.0683 9.34048 14.0099C9.18402 13.893 8.95839 13.7211 8.68675 13.504C8.14192 13.0687 7.41944 12.4579 6.7008 11.7519C5.97814 11.042 5.2831 10.2588 4.77496 9.48011C4.25537 8.6839 4 7.99655 4 7.45564H2ZM9 15C9.57346 15.8192 9.57364 15.8191 9.57383 15.8189C9.57393 15.8189 9.57415 15.8187 9.57434 15.8186C9.57472 15.8183 9.5752 15.818 9.57576 15.8176C9.57689 15.8168 9.57839 15.8157 9.58024 15.8144C9.58394 15.8118 9.58907 15.8082 9.59559 15.8036C9.60862 15.7944 9.62719 15.7811 9.65093 15.7641C9.6984 15.73 9.7666 15.6805 9.85256 15.6169C10.0244 15.4898 10.2677 15.3058 10.5588 15.075C11.1394 14.6147 11.9175 13.9619 12.6995 13.1966C13.4774 12.4352 14.2831 11.5393 14.9006 10.5909C15.5074 9.65882 16 8.57354 16 7.45564H14C14 8.0099 13.7426 8.70374 13.2244 9.49974C12.7169 10.2794 12.0226 11.0606 11.3005 11.7672C10.5825 12.47 9.86061 13.0762 9.3162 13.5079C9.04477 13.7231 8.81935 13.8934 8.66307 14.0091C8.58496 14.0668 8.52425 14.1109 8.48384 14.1399C8.46363 14.1544 8.44851 14.1652 8.43884 14.172C8.434 14.1755 8.43053 14.1779 8.42846 14.1794C8.42743 14.1801 8.42675 14.1806 8.42642 14.1808C8.42626 14.1809 8.42619 14.181 8.42621 14.181C8.42622 14.181 8.4263 14.1809 8.42631 14.1809C8.42641 14.1808 8.42654 14.1807 9 15ZM16 7.45564C16 6.29096 15.5624 5.16377 14.7676 4.32452L13.3154 5.69975C13.7481 6.15661 14 6.78733 14 7.45564L16 7.45564ZM14.7676 4.32452C13.971 3.48342 12.8787 3 11.7274 3V5C12.312 5 12.8845 5.24473 13.3154 5.69975L14.7676 4.32452ZM8.14575 5.20759C8.5281 4.55463 9.4719 4.55462 9.85425 5.20759L8.12837 6.2182C8.51849 6.88443 9.48152 6.88442 9.87163 6.2182L8.14575 5.20759Z" fill="#252525"/>
</svg>
