<svg fill="none" height="18" viewBox="0 0 15 18" width="15" xmlns="http://www.w3.org/2000/svg"><path d="m7.61682 5.17182c-.72736 0-1.85327-.8084-3.03897-.77918-1.56431.01948-2.9991.88632-3.806171 2.25962-1.624101 2.75636-.41848 6.82754 1.165761 9.06774.77718 1.0908 1.69385 2.3181 2.90944 2.2791 1.16576-.0487 1.60417-.7402 3.01903-.7402 1.4049 0 1.80345.7402 3.03899.711 1.2554-.0195 2.0525-1.1104 2.8197-2.211.8868-1.2661 1.2555-2.4933 1.2754-2.5615-.0299-.0098-2.4411-.9156-2.471-3.64269-.02-2.2791 1.9031-3.36996 1.9927-3.41866-1.096-1.5681-2.7799-1.74341-3.3677-1.78237-1.53446-.11688-2.81979.81814-3.53718.81814zm2.59058-2.29859c.6477-.7597 1.0761-1.82133.9565-2.87323-.9266.0389591-2.04255.603865-2.71012 1.36357-.59783.67204-1.11595 1.75316-.97646 2.78557 1.02628.07792 2.08244-.51621 2.73008-1.27591" fill="#252525"/></svg>