<svg fill="none" height="123" viewBox="0 0 171 123" width="171" xmlns="http://www.w3.org/2000/svg"><path clip-rule="evenodd" d="m126.098 122.88s-5.266-6.289-9.655-11.849c19.164-5.413 26.478-17.4067 26.478-17.4067-5.998 3.9492-11.703 6.7287-16.823 8.6307-7.314 3.07-14.336 5.119-21.211 6.289-14.0437 2.633-26.9168 1.903-37.888-.146-8.3384-1.61-15.5063-3.95-21.5044-6.289-3.3642-1.317-7.0215-2.9261-10.6787-4.975-.2212-.1484-.4419-.2578-.6631-.3672-.2177-.1093-.4355-.2187-.6533-.3632-.2925-.1465-.439-.293-.5854-.4395-2.6329-1.4629-4.0957-2.4863-4.0957-2.4863s7.0214 11.7012 25.6001 17.2622c-4.3887 5.558-9.8013 12.14-9.8013 12.14-32.3291-1.023-44.6172-22.234-44.6172-22.234 0-47.1057 21.0649-85.2854 21.0649-85.2854 21.0655-15.798833 41.1065-15.35937954 41.1065-15.35937954l1.4629 1.75390954c-26.3316 7.60742-38.4732 19.16407-38.4732 19.16407s3.2183-1.7559 8.6309-4.2422c15.6523-6.875 28.0869-8.77734 33.207-9.2168.8775-.14453 1.6089-.29101 2.4868-.29101 8.9234-1.17188 19.0171-1.46289 29.5498-.29297 13.8974 1.60938 28.8184 5.70508 44.0314 14.04298 0 0-11.556-10.97071-36.425-18.57814l2.048-2.33983954s20.041-.43945346 41.106 15.35937954c0 0 21.066 38.1797 21.066 85.2854 0 0-12.435 21.211-44.764 22.234zm-68.0228-68.3143c-8.3379 0-14.9209 7.3144-14.9209 16.2383 0 8.9238 6.729 16.2363 14.9209 16.2363 8.3384 0 14.9214-7.3125 14.9214-16.2363.1465-8.9239-6.583-16.2383-14.9214-16.2383zm53.3948 0c-8.339 0-14.9217 7.3144-14.9217 16.2383 0 8.9238 6.7297 16.2363 14.9217 16.2363 8.338 0 14.921-7.3125 14.921-16.2363 0-8.9239-6.583-16.2383-14.921-16.2383z" fill="#969696" fill-rule="evenodd"/></svg>