<svg fill="none" height="48" viewBox="0 0 48 48" width="48" xmlns="http://www.w3.org/2000/svg"><g fill="#6e6e6e"><path d="m42.357 5.64306c-1.0279-1.02819-2.2484-1.84381-3.5916-2.40028-1.3433-.55647-2.7829-.84288-4.2369-.84288-1.4539 0-2.8936.28641-4.2368.84288s-2.5637 1.37209-3.5917 2.40028c-.594.594-3.806 3.741-5.483 5.41804 1.9714-.1366 3.9476.1847 5.774.939.8-.8 2.733-2.66804 3.064-3.00004.5836-.60397 1.2817-1.08569 2.0534-1.41704.7718-.33136 1.6017-.50572 2.4416-.51292.8398-.0072 1.6727.15291 2.45.47098.7773.31808 1.4835.78775 2.0774 1.38163s1.0635 1.30009 1.3816 2.07739.4782 1.6102.471 2.45-.1816 1.6698-.5129 2.4416c-.3314.7717-.8131 1.4697-1.4171 2.0534l-8.2 8.2c-2.471 2.471-6.905 2.76-9.376.29-.8371-.6636-1.4953-1.5257-1.915-2.508-.2401.1338-.4616.2986-.659.49l-2.523 2.642c.5015.9479 1.1389 1.8175 1.892 2.581 4.324 4.323 12.149 3.648 16.472-.676l7.666-7.664c1.0282-1.028 1.8438-2.2485 2.4003-3.5917s.8429-2.7829.8429-4.2368c0-1.454-.2864-2.8937-.8429-4.23689-.5565-1.34323-1.3721-2.56368-2.4003-3.59165z"/><path d="m20.7999 36.0718c-.8.8-2.524 2.6-2.855 2.93-1.1898 1.1697-2.7936 1.8221-4.4622 1.8149-1.6685-.0072-3.2667-.6733-4.44638-1.8533-1.17972-1.18-1.84548-2.7783-1.85229-4.4468-.00681-1.6686.64586-3.2722 1.81591-4.4618l8.21396-8.214c2.471-2.471 6.855-2.75 9.325-.279.7816.6974 1.3693 1.5851 1.706 2.577.2403-.1337.4619-.2984.659-.49l2.677-2.655c-.5015-.9482-1.1393-1.8178-1.893-2.581-2.1196-2.0685-4.9678-3.2203-7.9294-3.2066-2.9617.0136-5.7991 1.1916-7.8996 3.2796l-8.21596 8.214c-2.07625 2.0762-3.24267 4.8922-3.24267 7.8285 0 2.9362 1.16642 5.7522 3.24267 7.8285 2.07625 2.0762 4.89226 3.2426 7.82846 3.2426 2.9363 0 5.7523-1.1664 7.8285-3.2426.594-.594 3.6-3.672 5.274-5.348-1.9711.1366-3.9472-.1841-5.774-.937z"/></g></svg>