<svg width="18" height="18" viewBox="0 0 18 18" fill="none" xmlns="http://www.w3.org/2000/svg">
<path d="M14.0614 6.31504L14.2234 6.40985C14.5425 6.59658 14.6519 7.01014 14.4676 7.33357L13.0896 9.75249C12.9054 10.0759 12.4973 10.1867 12.1782 10L12.0162 9.90519C11.5773 9.64839 11.2819 9.19868 11.2174 8.68926C11.1709 8.32148 10.7852 8.10546 10.4532 8.26119L10.035 8.45734C9.86338 8.53785 9.6638 8.52873 9.49998 8.43288L7.06001 7.16212C6.82199 7.02284 6.71266 6.7337 6.7979 6.46888L6.98096 5.70511C7.03778 5.52856 6.96598 5.33244 6.7979 5.25852C5.45599 4.66836 3.44331 5.59012 3.44331 4.57109C3.44331 3.55207 6.82514 2.23782 9.07122 3.55208L11.5459 4.84314C11.7097 4.93899 11.8166 5.10919 11.8336 5.30012L11.8751 5.76523C11.908 6.13452 12.2855 6.365 12.623 6.22196C13.0905 6.02382 13.6225 6.05825 14.0614 6.31504Z" stroke="white"/>
<path d="M6.89742 7L3.09465 13.7446C2.91226 14.0278 3.00189 14.4081 3.29088 14.5772L4.35233 15.1983C4.64132 15.3674 5.01113 15.2559 5.16193 14.9542L8.94285 8.07979" stroke="white"/>
</svg>
