<svg width="19" height="18" viewBox="0 0 19 18" fill="none" xmlns="http://www.w3.org/2000/svg">
<g clip-path="url(#clip0_448_2004)">
<path d="M2.83333 9.19355C2.83333 8.64127 3.28104 8.19356 3.83333 8.19356H11.5107C12.063 8.19356 12.5107 8.64127 12.5107 9.19356V10.6129C12.5107 13.2853 10.3444 15.4516 7.67204 15.4516V15.4516C4.99969 15.4516 2.83333 13.2853 2.83333 10.6129V9.19355Z" stroke="white" stroke-linecap="round"/>
<path d="M11.7043 8.19356H13.3172C14.4307 8.19356 15.3333 9.03418 15.3333 10.1477C15.3333 11.2611 14.4307 12.2258 13.3172 12.2258H12.5108" stroke="white"/>
<path d="M5.25268 2.54839L5.10899 2.83578C4.9485 3.15675 4.9723 3.53911 5.17136 3.83769L5.38461 4.15757C5.55579 4.41433 5.59883 4.73575 5.50125 5.0285L5.25268 5.77419" stroke="white" stroke-linecap="round"/>
<path d="M10.4946 2.54837L10.3509 2.83577C10.1904 3.15674 10.2142 3.53909 10.4133 3.83768L10.6265 4.15756C10.7977 4.41432 10.8408 4.73573 10.7432 5.02849L10.4946 5.77418" stroke="white" stroke-linecap="round"/>
</g>
<defs>
<clipPath id="clip0_448_2004">
<rect width="18" height="18" fill="white" transform="translate(0.333328)"/>
</clipPath>
</defs>
</svg>
