<svg width="18" height="18" viewBox="0 0 18 18" fill="none" xmlns="http://www.w3.org/2000/svg">
<path d="M6.49999 6H5.99999C5.05718 6 4.58577 6 4.29288 6.29289C3.99999 6.58579 3.99999 7.05719 3.99999 8V13C3.99999 13.9428 3.99999 14.4142 4.29288 14.7071C4.58577 15 5.05718 15 5.99999 15H12C12.9428 15 13.4142 15 13.7071 14.7071C14 14.4142 14 13.9428 14 13V8C14 7.05719 14 6.58579 13.7071 6.29289C13.4142 6 12.9428 6 12 6H11.5" stroke="white" stroke-linecap="round" stroke-linejoin="round"/>
<path d="M8.99999 10V2M8.99999 2L11 4M8.99999 2L6.99999 4" stroke="white" stroke-linecap="round" stroke-linejoin="round"/>
</svg>
