<svg width="18" height="18" viewBox="0 0 18 18" fill="none" xmlns="http://www.w3.org/2000/svg">
<path d="M4 6L4.8199 14.199C4.90549 15.0549 4.94829 15.4829 5.23398 15.7415C5.51967 16 5.94977 16 6.80998 16H11.19C12.0502 16 12.4803 16 12.766 15.7415C13.0517 15.4829 13.0945 15.0549 13.1801 14.199L14 6" stroke="white" stroke-linecap="round" stroke-linejoin="round"/>
<path d="M7 4V4C7 3.05719 7 2.58579 7.29289 2.29289C7.58579 2 8.05719 2 9 2V2C9.94281 2 10.4142 2 10.7071 2.29289C11 2.58579 11 3.05719 11 4V4" stroke="white" stroke-linecap="round" stroke-linejoin="round"/>
<path d="M14 4L4 4" stroke="white" stroke-linecap="round" stroke-linejoin="round"/>
</svg>
