<svg fill="none" height="18" viewBox="0 0 18 18" width="18" xmlns="http://www.w3.org/2000/svg"><g stroke="#fff" stroke-linecap="round" stroke-linejoin="round"><path d="m4 6 .8199 8.199c.08559.8559.12839 1.2839.41408 1.5425.28569.2585.71579.2585 1.576.2585h4.38002c.8602 0 1.2903 0 1.576-.2585.2857-.2586.3285-.6866.4141-1.5425l.8199-8.199"/><path d="m7 7 .5 6.5"/><path d="m11 7-.5 6.5"/><path d="m7 4c0-.94281 0-1.41421.29289-1.70711.2929-.29289.7643-.29289 1.70711-.29289.94281 0 1.4142 0 1.7071.29289.2929.2929.2929.7643.2929 1.70711"/><path d="m14 4h-10"/></g></svg>