<svg width="19" height="18" viewBox="0 0 19 18" fill="none" xmlns="http://www.w3.org/2000/svg">
<path d="M12.3274 4.00003V3.50003C12.3171 3.50003 12.3067 3.50035 12.2964 3.501L12.3274 4.00003ZM6.87258 4.00003L6.90365 3.501C6.8933 3.50035 6.88294 3.50003 6.87258 3.50003L6.87258 4.00003ZM3.60001 7.45567H3.10001H3.60001ZM9.60001 15L9.31125 15.4082C9.48356 15.5301 9.71384 15.5306 9.88674 15.4096L9.60001 15ZM15.6 7.45567H15.1H15.6ZM9.6087 5.71292L10.0402 5.96558L9.6087 5.71292ZM9.59131 5.71292L9.15984 5.96558L9.59131 5.71292ZM12.2964 3.501C11.6582 3.54073 11.0402 3.74283 10.4953 4.08804L11.0304 4.9328C11.4353 4.6763 11.891 4.52817 12.3585 4.49906L12.2964 3.501ZM10.4953 4.08804C9.95597 4.4297 9.50474 4.90095 9.17723 5.46027L10.0402 5.96558C10.2892 5.54031 10.6294 5.18685 11.0304 4.9328L10.4953 4.08804ZM10.0228 5.46027C9.69527 4.90096 9.24404 4.4297 8.70472 4.08804L8.16957 4.9328C8.5706 5.18685 8.91082 5.54031 9.15984 5.96558L10.0228 5.46027ZM8.70472 4.08804C8.15979 3.74283 7.54185 3.54073 6.90365 3.501L6.84151 4.49906C7.30904 4.52817 7.76467 4.6763 8.16957 4.9328L8.70472 4.08804ZM6.87258 3.50003C5.86298 3.50003 4.90061 3.92378 4.19548 4.66836L4.92156 5.35597C5.44388 4.80443 6.1463 4.50003 6.87258 4.50003L6.87258 3.50003ZM4.19548 4.66836C3.49122 5.41201 3.10001 6.41509 3.10001 7.45567H4.10001C4.10001 6.66327 4.39836 5.90843 4.92156 5.35597L4.19548 4.66836ZM3.10001 7.45567C3.10001 8.4227 3.53482 9.40505 4.11878 10.2999C4.70846 11.2035 5.48594 12.0718 6.24961 12.822C7.01529 13.5742 7.77905 14.2193 8.35038 14.6759C8.63643 14.9044 8.87519 15.0865 9.04305 15.2118C9.127 15.2745 9.19328 15.3231 9.23895 15.3562C9.26178 15.3728 9.27947 15.3855 9.29164 15.3942C9.29773 15.3986 9.30244 15.4019 9.30572 15.4043C9.30736 15.4054 9.30865 15.4063 9.30957 15.407C9.31003 15.4073 9.31041 15.4076 9.31069 15.4078C9.31083 15.4079 9.31097 15.408 9.31104 15.408C9.31116 15.4081 9.31125 15.4082 9.60001 15C9.88876 14.5918 9.88881 14.5918 9.88884 14.5919C9.88882 14.5918 9.88882 14.5919 9.88878 14.5918C9.88869 14.5918 9.88852 14.5916 9.88825 14.5914C9.88773 14.5911 9.88684 14.5904 9.88559 14.5896C9.88311 14.5878 9.87921 14.585 9.87395 14.5812C9.86341 14.5737 9.84741 14.5622 9.8263 14.5469C9.78408 14.5162 9.72145 14.4704 9.64134 14.4105C9.48108 14.2909 9.25108 14.1155 8.97463 13.8946C8.42097 13.4522 7.68473 12.83 6.95041 12.1086C6.21407 11.3853 5.49156 10.5737 4.95623 9.75339C4.41519 8.9243 4.10001 8.13862 4.10001 7.45567H3.10001ZM9.60001 15C9.88674 15.4096 9.88684 15.4095 9.88696 15.4095C9.88703 15.4094 9.88717 15.4093 9.88731 15.4092C9.88759 15.409 9.88797 15.4088 9.88843 15.4084C9.88936 15.4078 9.89065 15.4069 9.8923 15.4057C9.89559 15.4034 9.90031 15.4001 9.90641 15.3957C9.9186 15.3871 9.93631 15.3745 9.95916 15.3581C10.0049 15.3252 10.0712 15.2771 10.1552 15.215C10.3231 15.0907 10.562 14.9102 10.8482 14.6833C11.4197 14.2301 12.1837 13.589 12.9497 12.8393C13.7137 12.0916 14.4916 11.2244 15.0815 10.3181C15.6662 9.42008 16.1 8.43266 16.1 7.45567H15.1C15.1 8.15084 14.7838 8.94254 14.2435 9.77257C13.7084 10.5944 12.9863 11.4043 12.2503 12.1246C11.5163 12.843 10.7803 13.4609 10.2269 13.8997C9.95052 14.1188 9.72062 14.2925 9.56045 14.411C9.48038 14.4703 9.4178 14.5157 9.37562 14.546C9.35453 14.5611 9.33854 14.5725 9.32803 14.58C9.32277 14.5837 9.31889 14.5864 9.31641 14.5882C9.31517 14.5891 9.31429 14.5897 9.31376 14.59C9.3135 14.5902 9.31333 14.5903 9.31325 14.5904C9.31321 14.5904 9.31321 14.5904 9.31319 14.5904C9.31322 14.5904 9.31327 14.5904 9.60001 15ZM16.1 7.45567C16.1 6.41509 15.7088 5.41201 15.0045 4.66836L14.2785 5.35597C14.8016 5.90843 15.1 6.66327 15.1 7.45567L16.1 7.45567ZM15.0045 4.66836C14.2994 3.92378 13.337 3.50003 12.3274 3.50003V4.50003C13.0537 4.50003 13.7561 4.80443 14.2785 5.35597L15.0045 4.66836ZM9.17723 5.46027C9.36646 5.13711 9.83355 5.1371 10.0228 5.46027L9.15984 5.96558C9.35684 6.30201 9.84317 6.302 10.0402 5.96558L9.17723 5.46027Z" fill="white"/>
</svg>
