<svg fill="none" height="19" viewBox="0 0 18 19" width="18" xmlns="http://www.w3.org/2000/svg"><g fill="#fff"><path d="m11.7274 4.10535v-.5c-.0103 0-.0207.00032-.031.00096zm-4.45483 0 .03107-.49904c-.01034-.00064-.0207-.00096-.03107-.00096zm-3.27257 3.45564h-.5zm6 7.54431-.28875.4082c.1723.1219.40258.1225.57548.0014zm5.5-7.54431c0 .27614.2239.5.5.5s.5-.22386.5-.5zm-1.7536 4.98531c.1922-.1982.1873-.5148-.0109-.707-.1983-.1922-.5148-.1874-.7071.0109zm-3.73771-6.72806.43147.25265zm-.01738 0-.43147.25265zm2.70509-2.21193c-.6382.03974-1.2562.24184-1.80111.58705l.53511.84476c.4049-.25651.8606-.40463 1.3281-.43374zm-1.80111.58705c-.53932.34166-.99055.81291-1.31807 1.37223l.86294.5053c.24902-.42527.58924-.77872.99024-1.03277zm-.47251 1.37223c-.32752-.55932-.77875-1.03057-1.31807-1.37223l-.53515.84476c.40103.25405.74126.6075.99028 1.03277zm-1.31807-1.37223c-.54493-.34521-1.16287-.54731-1.80107-.58705l-.06214.99807c.46754.02911.92316.17723 1.32806.43374zm-1.83214-.58801c-1.0096 0-1.97196.42375-2.67709 1.16832l.72607.68762c.52232-.55154 1.22474-.85594 1.95102-.85594zm-2.67709 1.16832c-.70426.74366-1.09548 1.74673-1.09548 2.78732h1c0-.7924.29836-1.54724.82155-2.0997zm-1.09548 2.78732c0 .96703.43482 1.94938 1.01877 2.84421.58968.9036 1.36716 1.7719 2.13083 2.5221.76568.7522 1.52944 1.3974 2.10078 1.8539.28605.2286.5248.4106.69266.5359.08395.0627.15023.1113.1959.1444.02284.0166.04052.0293.0527.038.00608.0044.01079.0077.01407.0101.00165.0011.00293.0021.00386.0027.00046.0003.00083.0006.00111.0008.00014.0001.00028.0002.00035.0003.00012 0 .00022.0001.28897-.4081s.2888-.4081.28883-.4081c-.00002 0-.00002 0-.00006-.0001-.00008 0-.00026-.0001-.00052-.0003-.00053-.0004-.00142-.001-.00266-.0019-.00249-.0018-.00638-.0046-.01165-.0083-.01053-.0076-.02654-.0191-.04765-.0344-.04222-.0307-.10484-.0765-.18495-.1363-.16027-.1197-.39027-.295-.66672-.5159-.55366-.4425-1.2899-1.0647-2.02422-1.786-.73633-.7234-1.45885-1.535-1.99417-2.35529-.54105-.82909-.85623-1.61477-.85623-2.29772zm13 0c0-1.04059-.3912-2.04366-1.0955-2.78732l-.7261.68762c.5232.55246.8216 1.3073.8216 2.0997zm-1.0955-2.78732c-.7051-.74457-1.6675-1.16832-2.6771-1.16832v1c.7263 0 1.4287.3044 1.951.85594zm-4.4045 10.33163c.28673.4096.28678.4096.28683.4096.00003-.0001.00009-.0001.00015-.0001.0001-.0001.00024-.0002.0004-.0003.00033-.0003.00076-.0006.0013-.0009.00107-.0008.00258-.0018.0045-.0032.00384-.0027.00936-.0066.0165-.0117.01427-.0101.03502-.0249.06177-.0442.05349-.0385.13102-.0949.2288-.1677.19551-.1454.47235-.3562.80025-.6198.6546-.5263 1.5182-1.2671 2.3459-2.1207l-.718-.6961c-.7897.8144-1.6197 1.5271-2.25447 2.0374-.31679.2547-.58356.4578-.77049.5969-.09343.0695-.16683.1229-.21646.1586-.02481.0179-.04367.0313-.05611.0402-.00622.0044-.01084.0076-.01379.0097-.00148.0011-.00254.0018-.00318.0023-.00032.0002-.00053.0003-.00063.0004-.00006 0-.00008.0001-.00008.0001s.00002-.0001.00002-.0001c.00002 0 .00006 0 .28679.4096zm-.42278-9.53971c.18923-.32316.65632-.32317.84556 0l-.86294.5053c.197.33644.68333.33643.88032 0z"/><path d="m7.37867 10.1427c-.14503.235-.07211.543.16287.6881.23499.145.54306.0721.6881-.1629zm1.6599-1.73741.41413-.28018c-.09508-.14054-.25494-.22326-.42458-.21971-.16965.00354-.32591.09288-.41503.23727zm1.35313 2.00001-.41413.2802c.08063.1192.20883.1979.35163.2159.1429.018.2865-.0265.3942-.122zm1.3531-1.20001.3318-.37409c-.1893-.16789-.4742-.16789-.6635 0zm1.3531 1.20001-.3317.3741c.1893.1679.4742.1679.6635 0zm2.7063-.3c.2761 0 .5-.22387.5-.50001 0-.27615-.2239-.5-.5-.5zm-2.0882-.24818-.3317-.37409zm-4.48636.81078 1.23442-2-.85097-.52523-1.23442 2.00003zm.39481-1.98243 1.35312 2.00003.82823-.5604-1.3531-1.99999zm2.09895 2.09393 1.3532-1.20003-.6635-.74817-1.3532 1.2zm.6897-1.20003 1.3531 1.20003.6635-.7482-1.3531-1.2zm2.0166 1.20003.6181-.5482-.6635-.74817-.6181.54817zm.9498-.6741h1.4247v-1.00001h-1.4247zm-.3317.1259c.0915-.0811.2095-.1259.3317-.1259v-1.00001c-.3667 0-.7208.13438-.9952.37774z"/></g></svg>