<svg fill="none" height="19" viewBox="0 0 18 19" width="18" xmlns="http://www.w3.org/2000/svg"><path d="m4.52779 12.3422.32113-.3832zm2.47221 1.244-.12812.4833zm-4 1.256-.22689.4456c.02299.0117.04685.0216.07137.0296zm11.5-5.49998c0 1.04998-.5663 2.03868-1.5574 2.78198-.9912.7434-2.3835 1.218-3.9426 1.218v1c1.7546 0 3.3623-.5327 4.5426-1.418 1.1805-.8854 1.9574-2.1467 1.9574-3.58198zm-11 0c0-1.04997.56628-2.03867 1.55736-2.78198.99123-.74342 2.38351-1.21802 3.94264-1.21802v-1c-1.75458 0-3.3623.53276-4.54264 1.41802-1.1805.88538-1.95736 2.14668-1.95736 3.58198zm5.5-4c1.5591 0 2.9514.4746 3.9426 1.21802.9911.74331 1.5574 1.73201 1.5574 2.78198h1c0-1.4353-.7769-2.6966-1.9574-3.58198-1.1803-.88526-2.788-1.41802-4.5426-1.41802zm-4.15108 6.61678c-.86183-.7222-1.34892-1.6421-1.34892-2.61678h-1c0 1.33038.66832 2.51318 1.70665 3.38328zm4.15108 1.3832c-.65852 0-1.28861-.0847-1.87188-.2393l-.25624.9666c.66784.177 1.3841.2727 2.12812.2727zm-1.87188-.2393c-.22152-.0588-.43424.0089-.54984.0514-.13899.0511-.28829.1264-.43209.2042-.14579.079-.30825.1729-.47117.266-.16598.0948-.33849.1922-.51725.286-.36036.1892-.72715.3535-1.08058.4438-.35307.0902-.66029.0983-.92167.0127l-.31104.9504c.50251.1645 1.01631.1244 1.48032.0058.46365-.1185.90998-.3237 1.29772-.5272.1953-.1025.38059-.2073.54851-.3032.17099-.0977.31854-.183.45123-.2549.13469-.0729.23235-.1198.30117-.1451.0922-.0339.04812.0031-.05155-.0233zm-3.90123 1.2938c.1081.055.18815.1587.21465.2769.02045.0913.00055.1531.00025.1541-.00061.0021.01597-.0418.08608-.1461.1316-.1957.34613-.4533.58911-.743.23081-.2751.48813-.5802.66418-.8349.08534-.1235.1757-.2687.22817-.413.02604-.0717.05636-.179.05012-.3027-.00699-.1386-.06229-.3048-.21053-.429l-.64227.7665c-.10733-.09-.14195-.2082-.14593-.2871-.00322-.0639.01245-.0995.00875-.0893-.00701.0193-.03653.0784-.11089.186-.14336.2073-.36481.4712-.60775.7609-.23079.2751-.48503.5781-.65284.8277-.0796.1184-.1704.2684-.2155.4216-.02254.0766-.04896.2033-.01675.347.03826.1707.14836.3145.30737.3955z" fill="#fff"/></svg>