<svg width="14" height="13" viewBox="0 0 14 13" fill="none" xmlns="http://www.w3.org/2000/svg">
<path d="M6.52447 1.46352C6.67415 1.00287 7.32585 1.00287 7.47553 1.46353L8.45934 4.49139C8.52628 4.6974 8.71826 4.83688 8.93487 4.83688H12.1186C12.6029 4.83688 12.8043 5.45669 12.4124 5.74139L9.83679 7.61271C9.66155 7.74003 9.58822 7.96572 9.65516 8.17173L10.639 11.1996C10.7886 11.6602 10.2614 12.0433 9.86955 11.7586L7.29389 9.88729C7.11865 9.75997 6.88135 9.75997 6.70611 9.88729L4.13045 11.7586C3.73859 12.0433 3.21136 11.6602 3.36103 11.1996L4.34484 8.17173C4.41178 7.96572 4.33845 7.74003 4.16321 7.61271L1.58755 5.74139C1.1957 5.45669 1.39708 4.83688 1.88145 4.83688H5.06513C5.28174 4.83688 5.47372 4.6974 5.54066 4.49139L6.52447 1.46352Z" stroke="white" stroke-linecap="round" stroke-linejoin="round"/>
</svg>
