<svg fill="none" height="19" viewBox="0 0 18 19" width="18" xmlns="http://www.w3.org/2000/svg"><g stroke="#fff"><rect height="8" rx="1" width="14" x="2" y="5.38013"/><path d="m3.5 13.3801c0-1-.5-1.5-1.5-1.5" stroke-width="1.5"/><path d="m2 6.88013c1 0 1.5-.5 1.5-1.5" stroke-width="1.5"/><path d="m14.5 5.38013c0 1 .5 1.5 1.5 1.5" stroke-width="1.5"/><path d="m16 11.8801c-1 0-1.5.5-1.5 1.5" stroke-width="1.5"/></g><path d="m11 9.38013c0 1.10457-.8954 1.99997-2 1.99997-1.10457 0-2-.8954-2-1.99997s.89543-2 2-2c1.1046 0 2 .89543 2 2z" fill="#fff"/></svg>