<svg fill="none" height="19" viewBox="0 0 18 19" width="18" xmlns="http://www.w3.org/2000/svg"><path d="m3 16.6843h12c.5523 0 1-.4477 1-1v-11.99997c0-.55229-.4477-1-1-1h-10c-.55228 0-1 .44771-1 1v8.74997" stroke="#fff" stroke-linecap="round"/><path d="m2 6.68433v8.99997c0 .5523.44772 1 1 1 .55228 0 1-.4477 1-1v-4.8461" stroke="#fff" stroke-linecap="round"/><path d="m6 6.68433c0-.55229.44772-1 1-1h2c.55228 0 1 .44771 1 1v1.5c0 .55228-.44772 1-1 1h-2c-.55228 0-1-.44772-1-1z" fill="#fff"/><g stroke="#fff" stroke-linecap="round"><path d="m13.5 6.18433h-2"/><path d="m13.5 8.68433h-2"/><path d="m13.5 11.1843h-7"/><path d="m13.5 13.6843h-7"/></g></svg>