<svg width="18" height="18" viewBox="0 0 18 18" fill="none" xmlns="http://www.w3.org/2000/svg">
<path d="M8.52447 3.46352C8.67415 3.00287 9.32585 3.00287 9.47553 3.46353L10.4593 6.49139C10.5263 6.6974 10.7183 6.83688 10.9349 6.83688H14.1186C14.6029 6.83688 14.8043 7.45669 14.4124 7.74139L11.8368 9.61271C11.6615 9.74003 11.5882 9.96572 11.6552 10.1717L12.639 13.1996C12.7886 13.6602 12.2614 14.0433 11.8695 13.7586L9.29389 11.8873C9.11865 11.76 8.88135 11.76 8.70611 11.8873L6.13045 13.7586C5.73859 14.0433 5.21136 13.6602 5.36103 13.1996L6.34484 10.1717C6.41178 9.96572 6.33845 9.74003 6.16321 9.61271L3.58755 7.74139C3.1957 7.45669 3.39708 6.83688 3.88145 6.83688H7.06513C7.28174 6.83688 7.47372 6.6974 7.54066 6.49139L8.52447 3.46352Z" fill="white" stroke="white" stroke-linecap="round" stroke-linejoin="round"/>
</svg>
