<svg fill="none" height="19" viewBox="0 0 18 19" width="18" xmlns="http://www.w3.org/2000/svg"><path d="m4.55556 14.9474c1.07373 0 1.62559-.2763 1.96743-.8289.22971-.3713.58877-.6711 1.02539-.6711h2.83362c.3787 0 .7126.2224.9235.537.4306.642.9816.963 2.1389.963.9018 0 1.7251-.3305 2.3519-.875.7381-.6413 1.2037-1.5797 1.2037-2.625 0-1.0454-.4656-1.98369-1.2037-2.62501-.6268-.54457-1.4501-.875-2.3519-.875l-8.88884.00001c-.90173 0-1.72506.33043-2.35185.875-.73815.64132-1.20371 1.5796-1.20371 2.625 0 1.0453.46556 1.9837 1.20371 2.625.62679.5446 1.45012.875 2.35185.875z" stroke="#fff"/><g fill="#fff"><path d="m4 10.4474c0-.2762.22386-.50001.5-.50001s.5.22381.5.50001v.4c0 .0552.04477.1.1.1h.4c.27614 0 .5.2238.5.5 0 .2761-.22386.5-.5.5h-.4c-.05523 0-.1.0448-.1.1v.4c0 .2761-.22386.5-.5.5s-.5-.2239-.5-.5v-.4c0-.0552-.04477-.1-.1-.1h-.4c-.27614 0-.5-.2239-.5-.5 0-.2762.22386-.5.5-.5h.4c.05523 0 .1-.0448.1-.1z"/><circle cx="13.5" cy="10.4474" r=".5"/><circle cx="13.5" cy="12.4474" r=".5"/><circle cx="12.5" cy="11.4474" r=".5"/><circle cx="14.5" cy="11.4474" r=".5"/></g><path d="m9 5.94739v-.5c0-.55229.44772-1 1-1h2.5c.5523 0 1-.44772 1-1v-1" stroke="#fff" stroke-linecap="round"/></svg>