<svg fill="none" height="19" viewBox="0 0 18 19" width="18" xmlns="http://www.w3.org/2000/svg"><g fill="#fff"><path d="m8.86132 9.58475c.19526-.19526.19526-.51184 0-.70711-.19526-.19526-.51185-.19526-.70711 0zm.11785-3.41768c-.19526.19526-.19526.51184 0 .7071.19526.19527.51184.19527.70711 0zm-3.42354 8.77493-.19578-.4601zm-.95834-1.0376-.44311-.2316zm.76449-1.4625.44312.2316zm1.77809 1.8259-.19578-.4601zm7.32803-9.58256.4714.4714.7071-.7071-.4714-.47141zm.4714 1.17851-7.83743 7.83745.7071.7071 7.83743-7.83744zm-7.99521 7.94395-1.58424.6742.39156.9201 1.58424-.6741zm-1.90368.3283.76449-1.4625-.88623-.4632-.76449 1.4625zm.85405-1.5844 2.96686-2.96685-.70711-.70711-2.96686 2.96686zm7.15924-8.57347-.5303.53033.7071.70711.5303-.53033zm-.1768.53033-.4124-.41248-.7071.70711.4124.41248zm-1.8266-.41248-2.07113 2.07109.70711.7071 2.07112-2.07108zm1.4142 0c-.3906-.39052-1.0237-.39052-1.4142 0l.7071.70711zm.0589.41248c.0976-.09763.2559-.09763.3535 0l-.7071.70711c.2929.29289.7678.29289 1.0607 0zm-7.16355 9.97344c-.21606.0919-.42822-.1378-.31944-.3459l-.88623-.4632c-.54388 1.0405.51691 2.189 1.59723 1.7292zm.44505-1.8084c.02349-.0449.05369-.086.08956-.1219l-.70711-.7071c-.10759.1076-.19819.2309-.26868.3658zm1.29697 1.0277c-.04529.0453-.09885.0815-.15778.1065l.39156.9202c.17678-.0752.33747-.1837.47332-.3196zm7.83743-8.54456c.1953.19527.1953.51185 0 .70711l.7071.70711c.5858-.58579.5858-1.53554 0-2.12132zm.2357-1.17851c-.5857-.58578-1.5355-.58578-2.1213 0l.7071.70711c.1953-.19526.5119-.19526.7071 0z"/><path d="m2.55279 15.4869c.12349.2469.42383.3471.67082.2236s.3471-.4239.2236-.6709zm3.30076-10.3701c.19527-.19526.19527-.51185 0-.70711-.19526-.19526-.51184-.19526-.7071 0zm-2.40634 9.9228c-.4399-.8798-.69233-2.5165-.39109-4.3842.29865-1.85164 1.13361-3.87477 2.79743-5.5386l-.7071-.70711c-1.83617 1.83617-2.75122 4.06304-3.07757 6.08641-.32376 2.0073-.07619 3.8706.48391 4.9908z"/></g></svg>