<svg fill="none" height="19" viewBox="0 0 18 19" width="18" xmlns="http://www.w3.org/2000/svg" xmlns:xlink="http://www.w3.org/1999/xlink"><clipPath id="a"><path d="m0 .210693h18v18h-18z"/></clipPath><g clip-path="url(#a)"><rect height="16" rx="1" stroke="#fff" stroke-linecap="round" stroke-linejoin="round" width="12" x="3" y="1.21069"/><g fill="#fff"><path d="m5.5 3.96069c0-.13807.11193-.25.25-.25h6.5c.1381 0 .25.11193.25.25v1.5c0 .13807-.1119.25-.25.25h-6.5c-.13807 0-.25-.11193-.25-.25z" stroke="#fff" stroke-linecap="round" stroke-linejoin="round"/><path d="m5.5 14.2107c0-.2761.22386-.5.5-.5h3c.27614 0 .5.2239.5.5 0 .2761-.22386.5-.5.5h-3c-.27614 0-.5-.2239-.5-.5z" stroke="#fff" stroke-linecap="round" stroke-linejoin="round"/><path d="m7 8.21069c0 .55229-.44772 1-1 1s-1-.44771-1-1c0-.55228.44772-1 1-1s1 .44772 1 1z"/><path d="m7 11.2107c0 .5523-.44772 1-1 1s-1-.4477-1-1 .44772-1 1-1 1 .4477 1 1z"/><path d="m10 11.2107c0 .5523-.44772 1-1 1s-1-.4477-1-1 .44772-1 1-1 1 .4477 1 1z"/><path d="m10 8.21069c0 .55229-.44772 1-1 1s-1-.44771-1-1c0-.55228.44772-1 1-1s1 .44772 1 1z"/><path d="m13 8.21069c0 .55229-.4477 1-1 1s-1-.44771-1-1c0-.55228.4477-1 1-1s1 .44772 1 1z"/><path d="m13 11.2107c0 .5523-.4477 1-1 1s-1-.4477-1-1 .4477-1 1-1 1 .4477 1 1z"/><path d="m13 14.2107c0 .5523-.4477 1-1 1s-1-.4477-1-1 .4477-1 1-1 1 .4477 1 1z"/></g></g></svg>