<svg width="77" height="19" fill="none" xmlns="http://www.w3.org/2000/svg"><g clip-path="url(#clip0_32_12432)"><path fill-rule="evenodd" clip-rule="evenodd" d="M2.507 0H16.53a2.506 2.506 0 0 1 2.507 2.502V16.5a2.505 2.505 0 0 1-2.507 2.5H2.507A2.505 2.505 0 0 1 0 16.5V2.496A2.495 2.495 0 0 1 .735.729 2.505 2.505 0 0 1 2.507 0zM37.95 15.07c-3.707.016-3.707-2.986-3.707-3.464L34.237.358 36.498 0v11.18c0 .27 0 1.988 1.452 1.993v1.896zm-9.167-1.84c.694 0 1.209-.039 1.568-.108v-2.293a5.363 5.363 0 0 0-1.33-.168c-.254 0-.507.019-.758.058-.239.03-.47.099-.688.202a1.23 1.23 0 0 0-.492.414c-.127.18-.185.283-.185.554 0 .53.185.836.52 1.037.336.202.793.306 1.366.306v-.001zm-.197-8.181c.747 0 1.377.092 1.886.277.509.184.92.443 1.22.771.307.334.515.778.643 1.251.133.473.196.991.196 1.56v5.799c-.524.103-1.05.192-1.579.265-.705.103-1.498.156-2.377.156a7.278 7.278 0 0 1-1.602-.167 3.384 3.384 0 0 1-1.243-.537 2.604 2.604 0 0 1-.804-.956c-.19-.393-.29-.945-.29-1.521 0-.553.11-.905.325-1.286.216-.377.52-.697.885-.933a3.81 3.81 0 0 1 1.294-.519 7.452 7.452 0 0 1 1.539-.156c.561.001 1.12.07 1.666.202v-.369c0-.259-.03-.506-.093-.737a1.585 1.585 0 0 0-.324-.616 1.508 1.508 0 0 0-.612-.416 2.679 2.679 0 0 0-.966-.173c-.52 0-.995.064-1.428.139a6.548 6.548 0 0 0-1.065.259l-.272-1.85c.284-.098.705-.196 1.25-.294a9.299 9.299 0 0 1 1.752-.15v.001zm44.66 8.12c.695 0 1.209-.041 1.567-.11v-2.295a5.373 5.373 0 0 0-1.33-.167c-.249 0-.503.017-.757.058-.239.03-.471.099-.688.202a1.234 1.234 0 0 0-.492.414c-.127.18-.184.283-.184.554 0 .53.184.836.52 1.037.34.207.792.305 1.364.305v.001zm-.19-8.177c.746 0 1.376.09 1.885.276.508.184.92.443 1.22.771.3.33.515.779.642 1.251.137.51.203 1.035.197 1.562v5.797c-.347.075-.874.16-1.58.265-.704.104-1.497.155-2.377.155a7.224 7.224 0 0 1-1.601-.167 3.385 3.385 0 0 1-1.243-.535 2.603 2.603 0 0 1-.804-.957c-.191-.392-.29-.944-.29-1.521 0-.554.11-.905.325-1.286.216-.377.52-.697.884-.933a3.826 3.826 0 0 1 1.295-.518 7.455 7.455 0 0 1 2.325-.11c.278.029.567.081.88.156v-.369a2.776 2.776 0 0 0-.093-.738 1.578 1.578 0 0 0-.325-.616 1.508 1.508 0 0 0-.612-.415 2.68 2.68 0 0 0-.966-.173c-.52 0-.994.063-1.428.138a6.563 6.563 0 0 0-1.065.26l-.27-1.85c.282-.098.704-.196 1.248-.294a9.861 9.861 0 0 1 1.752-.15zm-6.79-1.072a1.373 1.373 0 0 1-1.377-1.367c0-.755.613-1.366 1.376-1.366a1.37 1.37 0 0 1 1.378 1.366c0 .755-.62 1.367-1.378 1.367zm1.138 11.15h-2.272V5.34l2.273-.356V15.07zm-3.983 0c-3.707.017-3.707-2.986-3.707-3.464L59.707.358 61.968 0v11.18c0 .27 0 1.988 1.452 1.993v1.897zm-7.352-4.979c0-.975-.214-1.787-.63-2.351-.417-.571-1-.852-1.747-.852-.746 0-1.33.28-1.745.852-.417.57-.62 1.376-.62 2.351 0 .985.208 1.648.626 2.219.415.576 1 .858 1.746.858.745 0 1.33-.288 1.747-.86.415-.575.623-1.23.623-2.218v.001zm2.313-.006c0 .761-.11 1.336-.335 1.966a4.654 4.654 0 0 1-.953 1.607 4.213 4.213 0 0 1-1.481 1.032c-.579.241-1.47.38-1.914.38-.447-.005-1.33-.133-1.904-.38a4.307 4.307 0 0 1-1.474-1.032 4.752 4.752 0 0 1-.96-1.607 5.342 5.342 0 0 1-.347-1.966c0-.76.104-1.493.336-2.115a4.683 4.683 0 0 1 .971-1.596c.416-.441.92-.79 1.48-1.026.573-.242 1.204-.356 1.886-.356.683 0 1.312.12 1.89.356.564.229 1.07.58 1.482 1.026.422.464.748 1.006.96 1.596.242.622.364 1.355.364 2.115zm-17.02 0c0 .945.209 1.993.624 2.431.417.439.956.658 1.615.658.358 0 .7-.052 1.017-.15a2.85 2.85 0 0 0 .775-.352V7.078a8.871 8.871 0 0 0-1.492-.19c-.82-.024-1.446.312-1.885.847-.433.536-.653 1.476-.653 2.351zm6.287 4.449c0 1.538-.394 2.662-1.187 3.377-.79.714-2 1.071-3.63 1.071-.596 0-1.834-.115-2.823-.334l.364-1.786c.828.173 1.92.22 2.493.22.908 0 1.555-.186 1.943-.554.388-.369.578-.916.578-1.643v-.369a6.815 6.815 0 0 1-.885.335c-.363.11-.785.167-1.26.167a4.734 4.734 0 0 1-1.706-.294c-.5-.185-.953-.48-1.324-.865a3.934 3.934 0 0 1-.857-1.429c-.202-.57-.306-1.59-.306-2.339 0-.703.11-1.585.324-2.173.22-.587.532-1.095.954-1.515.417-.42.926-.743 1.522-.98a5.593 5.593 0 0 1 2.052-.386c.735 0 1.411.092 2.07.203.66.108 1.22.223 1.678.35v8.945-.001zM11.503 4.242V3.59a.826.826 0 0 0-.827-.824H8.749a.826.826 0 0 0-.827.824v.669c0 .074.07.126.145.11a6.126 6.126 0 0 1 3.297-.018.112.112 0 0 0 .139-.11zm-5.281.852l-.33-.328a.827.827 0 0 0-1.168 0l-.393.392a.82.82 0 0 0 0 1.164l.324.323c.052.051.127.04.173-.012.191-.259.4-.507.63-.737.238-.236.48-.444.747-.634.058-.035.064-.115.017-.168zm3.516 2.069V9.98c0 .08.088.139.162.098l2.51-1.296c.058-.029.075-.099.047-.155a3.124 3.124 0 0 0-2.603-1.574c-.058 0-.115.045-.115.11l-.001-.001zm0 6.789a3.79 3.79 0 0 1-3.794-3.78A3.79 3.79 0 0 1 9.739 6.39a3.79 3.79 0 0 1 3.794 3.78 3.778 3.778 0 0 1-1.113 2.675 3.794 3.794 0 0 1-2.682 1.106zm0-9.152A5.381 5.381 0 0 0 5.08 7.484a5.36 5.36 0 0 0 0 5.369 5.389 5.389 0 0 0 9.633-.63 5.366 5.366 0 0 0 0-4.113 5.358 5.358 0 0 0-2.915-2.904 5.38 5.38 0 0 0-2.06-.405z" fill="#5468FF"/></g><defs><clipPath id="clip0_32_12432"><path fill="#fff" d="M0 0H77V19H0z"/></clipPath></defs></svg>