<svg xmlns="http://www.w3.org/2000/svg" height="18" viewBox="0 0 18 18" width="18">
  <defs>
    <style>
      .a {
        fill: #6E6E6E;
      }
    </style>
  </defs>
  <title>S Date 18 N</title>
  <rect id="Canvas" fill="#ff13dc" opacity="0" width="18" height="18" /><path class="a" d="M17.5,3H15V1.5a.5.5,0,0,0-.5-.5h-1a.5.5,0,0,0-.5.5V3H6V1.5A.5.5,0,0,0,5.5,1h-1a.5.5,0,0,0-.5.5V3H1.5a.5.5,0,0,0-.5.5v13a.5.5,0,0,0,.5.5h16a.5.5,0,0,0,.5-.5V3.5A.5.5,0,0,0,17.5,3ZM17,16H2V4H4v.5a.5.5,0,0,0,.5.5h1A.5.5,0,0,0,6,4.5V4h7v.5a.5.5,0,0,0,.5.5h1a.5.5,0,0,0,.5-.5V4h2Z" />
  <rect class="a" height="4" rx="0.5" width="4" x="11" y="10" />
</svg>