<svg fill="#6E6E6E" height="48" viewBox="0 0 48 48" width="48" xmlns="http://www.w3.org/2000/svg"><g fill="#6E6E6E"><path d="m23.685 26.7547c.092.0664.2026.1022.316.1022s.224-.0358.316-.1022l23.683-17.36796v-1.387c-.026-.55392-.27-1.07508-.6787-1.44977-.4088-.37469-.9492-.57249-1.5033-.55023h-43.636c-.55408-.02226-1.09447.17554-1.50326.55023-.408787.37469-.652781.89585-.67874 1.44977v1.387zm24.315-12.593-13.193 9.675 13.193 7.255z"/><path d="m31.419 26.3211-4.562 3.346c-.8388.5817-1.8352.8934-2.856.8934s-2.0172-.3117-2.856-.8934l-4.585-3.367-16.56 9.137v2.563c.025959.554.269953 1.0751.67874 1.4498.40879.3747.94918.5725 1.50326.5502h43.636c.5541.0223 1.0945-.1755 1.5033-.5502.4087-.3747.6527-.8958.6787-1.4498v-2.561zm-18.247-2.502-13.172-9.658v16.928z"/></g></svg>