<svg fill="none" height="17" viewBox="0 0 17 17" width="17" xmlns="http://www.w3.org/2000/svg"><g fill="#e3e3e3"><path d="m11.9526 2.74798-.3294.54896c-.0457.07827-.0596.17105-.0389.25926.0207.08822.0744.16514.1501.21496 1.013.69099 1.7779 1.68832 2.1827 2.84577.4048 1.15746.4281 2.41415.0665 3.58577-.3616 1.1717-1.089 2.1967-2.0756 2.9248-.9867.7281-2.1806 1.1209-3.40679 1.1209s-2.42013-.3928-3.40677-1.1209c-.98663-.7281-1.71406-1.7531-2.07562-2.9248-.36157-1.17162-.33826-2.42831.06652-3.58577.40478-1.15745 1.16972-2.15478 2.18268-2.84577.07553-.04986.1291-.12675.14971-.21488.02062-.08812.00672-.18079-.03885-.25899l-.32796-.54754c-.0246-.04141-.05728-.07743-.09611-.10592-.03882-.02849-.08299-.04886-.12987-.05991-.04687-.01104-.09549-.01252-.14295-.00435-.04746.00816-.09279.02581-.13328.05189-1.25978.84682-2.2142 2.07594-2.72261 3.50621-.5084 1.43027-.54389 2.98604-.10124 4.43803.44265 1.4519 1.34003 2.7233 2.55988 3.6267s2.69764 1.391 4.21559 1.391c1.51797 0 2.99577-.4876 4.21557-1.391 1.2199-.9034 2.1172-2.1748 2.5599-3.6267.4426-1.45199.4072-3.00776-.1013-4.43803-.5084-1.43027-1.4628-2.65939-2.7226-3.50621-.0401-.02629-.0851-.04416-.1323-.05253s-.0956-.00707-.1423.00382c-.0467.0109-.0907.03116-.1293.05956-.0387.0284-.0711.06435-.0954.10567z"/><path d="m8.854.708374h-.70833c-.1956 0-.35417.158566-.35417.354166v6.375c0 .1956.15857.35417.35417.35417h.70833c.19561 0 .35417-.15857.35417-.35417v-6.375c0-.1956-.15856-.354166-.35417-.354166z"/></g></svg>