<svg fill="none" height="17" viewBox="0 0 17 17" width="17" xmlns="http://www.w3.org/2000/svg"><path d="m14.8748 7.33121h-1.06c-.0387-.00014-.0762-.01327-.1065-.03729-.0303-.02403-.0517-.05754-.0606-.09517-.1262-.49849-.3247-.97579-.5894-1.41667-.0205-.03304-.0291-.07204-.0245-.11064.0045-.0386.022-.0745.0497-.10186l.7504-.75047c.0658-.06578.118-.14388.1537-.22984.0356-.08596.0539-.17809.0539-.27113 0-.09305-.0183-.18518-.0539-.27114-.0357-.08595-.0879-.16405-.1537-.22983l-.6509-.65167c-.1328-.13279-.313-.20739-.5008-.20739s-.368.0746-.5008.20739l-.7508.75083c-.0274.02756-.0634.04502-.102.04952-.0385.00451-.0775-.00421-.1105-.02472-.441-.26448-.9182-.46291-1.4167-.58898-.03757-.00896-.07104-.03027-.09506-.06052-.02401-.03024-.03718-.06768-.0374-.1063v-1.06037c0-.18786-.07463-.36803-.20746-.50087-.13284-.13284-.31301-.20746-.50087-.20746h-.92119c-.18786 0-.36803.07462-.50087.20746s-.20746.31301-.20746.50087v1.06037c-.00022.03862-.01339.07606-.0374.1063-.02402.03025-.05749.05156-.09506.06052-.49846.12607-.97575.3245-1.41667.58898-.033.02051-.07198.02923-.11058.02472-.03859-.0045-.07452-.02196-.10192-.04952l-.75083-.75083c-.13283-.13279-.31297-.20739-.50079-.20739-.18783 0-.36796.0746-.50079.20739l-.65132.65131c-.0658.06578-.118.14388-.15362.22984-.03561.08596-.05394.17809-.05394.27113 0 .09305.01833.18518.05394.27114.03562.08595.08782.16405.15362.22983l.75048.75048c.02762.02735.04514.06326.04971.10186.00456.03859-.00409.0776-.02456.11064-.26464.44087-.4632.91817-.58934 1.41667-.00897.03762-.03033.07114-.06065.09516-.03032.02403-.06783.03716-.10651.0373h-1.06002c-.18786 0-.36803.07462-.50087.20746s-.20747.31301-.20747.50087v.92083c0 .18786.07463.36803.20747.50087s.31301.20747.50087.20747h1.06002c.03863.00011.07611.0132.10642.03715s.0517.05739.06074.09495c.12594.49914.32451.97704.58934 1.41844.02047.033.02912.072.02456.1106-.00457.0386-.02209.0745-.04971.1019l-.75048.7498c-.0658.0657-.118.1438-.15362.2298-.03561.086-.05394.1781-.05394.2711 0 .0931.01833.1852.05394.2712.03562.0859.08782.164.15362.2298l.65096.651c.06578.0658.14388.118.22984.1536.08595.0356.17809.0539.27113.0539s.18518-.0183.27113-.0539c.08596-.0356.16406-.0878.22984-.1536l.75048-.7505c.02735-.0276.06326-.0452.10185-.0497.0386-.0046.07761.0041.11065.0245.44087.2647.91817.4632 1.41667.5894.03756.0089.07103.0302.09505.0605.02402.0302.03719.0677.0374.1063v1.0604c0 .1878.07463.368.20747.5008.13284.1329.313.2075.50087.2075h.92083c.18786 0 .36803-.0746.50087-.2075.13284-.1328.20746-.313.20746-.5008v-1.0604c.00022-.0386.01339-.0761.03741-.1063.02401-.0303.05748-.0516.09505-.0605.49851-.1262.97581-.3247 1.41671-.5894.033-.0204.072-.0291.1106-.0245.0386.0045.0745.0221.1019.0497l.7504.7505c.0658.0658.1439.118.2299.1536.0859.0356.1781.0539.2711.0539.0931 0 .1852-.0183.2711-.0539.086-.0356.1641-.0878.2299-.1536l.6509-.651c.0658-.0658.118-.1439.1537-.2298.0356-.086.0539-.1781.0539-.2712 0-.093-.0183-.1851-.0539-.2711-.0357-.086-.0879-.1641-.1537-.2298l-.7504-.7505c-.0277-.0274-.0452-.0633-.0497-.1019-.0046-.0386.004-.0776.0245-.1106.2648-.4414.4634-.9193.5893-1.41845.0091-.03756.0305-.071.0608-.09495s.0678-.03704.1064-.03715h1.0607c.1879 0 .3681-.07463.5009-.20747s.2075-.313.2075-.50087v-.91977c0-.18786-.0747-.36803-.2075-.50086-.1328-.13284-.313-.20747-.5009-.20747zm-6.37496 3.82499c-.52536 0-1.03892-.1558-1.47574-.4476-.43681-.2919-.77727-.7068-.97832-1.19214-.20104-.48536-.25365-1.01945-.15115-1.53471.10249-.51526.35547-.98856.72696-1.36004.37148-.37149.84478-.62447 1.36004-.72696s1.04934-.04989 1.53471.15115c.48536.20105.90026.54151 1.19206.97833.2919.43681.4477.95037.4477 1.47573 0 .70448-.2799 1.38011-.778 1.87824-.49815.4982-1.17378.778-1.87826.778z" fill="#e3e3e3"/></svg>