<svg class="_coral-Icon-collection" aria-hidden="true" focusable="false" xmlns="http://www.w3.org/2000/svg"><symbol id="spectrum-css-icon-AlertMedium" viewBox="0 0 18 18"><path d="M8.564 1.289L.2 16.256A.5.5 0 0 0 .636 17h16.728a.5.5 0 0 0 .436-.744L9.436 1.289a.5.5 0 0 0-.872 0zM10 14.75a.25.25 0 0 1-.25.25h-1.5a.25.25 0 0 1-.25-.25v-1.5a.25.25 0 0 1 .25-.25h1.5a.25.25 0 0 1 .25.25zm0-3a.25.25 0 0 1-.25.25h-1.5a.25.25 0 0 1-.25-.25v-6a.25.25 0 0 1 .25-.25h1.5a.25.25 0 0 1 .25.25z"/></symbol><symbol id="spectrum-css-icon-AlertSmall" viewBox="0 0 14 14"><path d="M6.66 1.003L.157 12.643a.389.389 0 0 0 .339.58h13.01a.389.389 0 0 0 .34-.58L7.338 1.004a.389.389 0 0 0-.678 0zm1.118 10.47a.194.194 0 0 1-.195.194H6.417a.194.194 0 0 1-.195-.195v-1.166a.194.194 0 0 1 .195-.195h1.166a.194.194 0 0 1 .195.195zm0-2.334a.194.194 0 0 1-.195.194H6.417a.194.194 0 0 1-.195-.194V4.472a.194.194 0 0 1 .195-.194h1.166a.194.194 0 0 1 .195.194z"/></symbol><symbol id="spectrum-css-icon-ArrowDownSmall" viewBox="0 0 8 10"><path d="M7.99 6.01a1 1 0 0 0-1.707-.707L5 6.586V1a1 1 0 0 0-2 0v5.586L1.717 5.303A1 1 0 1 0 .303 6.717l2.99 2.98a1 1 0 0 0 1.414 0l2.99-2.98a.997.997 0 0 0 .293-.707z"/></symbol><symbol id="spectrum-css-icon-ArrowLeftMedium" viewBox="0 0 14 10"><path d="M12.99 4H3.414l2.283-2.283A1 1 0 1 0 4.283.303l-3.98 3.99a1 1 0 0 0 0 1.414l3.98 3.99a1 1 0 1 0 1.414-1.414L3.414 6h9.576a1 1 0 1 0 0-2z"/></symbol><symbol id="spectrum-css-icon-ArrowUpSmall" viewBox="0 0 8 10"><path d="M7.99 3.99a1 1 0 0 1-1.707.707L5 3.414V9a1 1 0 0 1-2 0V3.414L1.717 4.697A1 1 0 1 1 .303 3.283l2.99-2.98a1 1 0 0 1 1.414 0l2.99 2.98a.997.997 0 0 1 .293.707z"/></symbol><symbol id="spectrum-css-icon-Asterisk" viewBox="0 0 8 8"><path d="M6.573 6.558c.056.055.092.13 0 .204l-1.148.74c-.093.056-.13.02-.167-.073L3.832 4.947l-1.87 2.055c-.02.037-.075.074-.13 0l-.889-.926c-.092-.055-.074-.111 0-.167l2.111-1.76-2.408-.906c-.037 0-.092-.074-.055-.167l.63-1.259a.097.097 0 0 1 .166-.036l2.111 1.37.13-2.704a.097.097 0 0 1 .111-.11L5.277.54c.092 0 .11.037.092.13l-.722 2.647 2.444-.74c.056-.038.111-.038.148.073l.241 1.37c.019.093 0 .13-.074.13l-2.556.204z"/></symbol><symbol id="spectrum-css-icon-CheckmarkMedium" viewBox="0 0 12 12"><path d="M4.5 10a1.022 1.022 0 0 1-.799-.384l-2.488-3a1 1 0 0 1 1.576-1.233L4.5 7.376l4.712-5.991a1 1 0 1 1 1.576 1.23l-5.51 7A.978.978 0 0 1 4.5 10z"/></symbol><symbol id="spectrum-css-icon-CheckmarkSmall" viewBox="0 0 10 10"><path d="M3.788 9A.999.999 0 0 1 3 8.615l-2.288-3a1 1 0 1 1 1.576-1.23l1.5 1.991 3.924-4.991a1 1 0 1 1 1.576 1.23l-4.712 6A.999.999 0 0 1 3.788 9z"/></symbol><symbol id="spectrum-css-icon-ChevronDownMedium" viewBox="0 0 10 6"><path d="M9.99 1.01A1 1 0 0 0 8.283.303L5 3.586 1.717.303A1 1 0 1 0 .303 1.717l3.99 3.98a1 1 0 0 0 1.414 0l3.99-3.98a.997.997 0 0 0 .293-.707z"/></symbol><symbol id="spectrum-css-icon-ChevronDownSmall" viewBox="0 0 8 6"><path d="M4 5.5a.747.747 0 0 0 .53-.22c.607-.577 1.97-2.038 3.24-3.24A.75.75 0 1 0 6.71.98L4 3.69 1.29.98A.75.75 0 1 0 .23 2.04l3.24 3.24A.747.747 0 0 0 4 5.5z"/></symbol><symbol id="spectrum-css-icon-ChevronLeftLarge" viewBox="0 0 12 16"><path d="M9.605 13.843L3.55 8l6.056-5.84A1.248 1.248 0 1 0 7.876.363L.882 7.1a1.243 1.243 0 0 0 .003 1.797l6.988 6.742a1.248 1.248 0 1 0 1.732-1.796z"/></symbol><symbol id="spectrum-css-icon-ChevronLeftMedium" viewBox="0 0 6 10"><path d="M5.697 8.283L2.414 5l3.283-3.283A1 1 0 1 0 4.283.303l-3.98 3.99a1 1 0 0 0 0 1.414l3.98 3.99a1 1 0 1 0 1.414-1.414z"/></symbol><symbol id="spectrum-css-icon-ChevronRightLarge" viewBox="0 0 12 16"><path d="M11.5 8a1.241 1.241 0 0 0-.386-.897L4.128.36a1.248 1.248 0 1 0-1.733 1.797L8.45 8l-6.058 5.84a1.248 1.248 0 1 0 1.733 1.797L11.117 8.9A1.245 1.245 0 0 0 11.5 8z"/></symbol><symbol id="spectrum-css-icon-ChevronRightMedium" viewBox="0 0 6 10"><path d="M5.99 5a.997.997 0 0 0-.293-.707L1.717.303A1 1 0 1 0 .303 1.717L3.586 5 .303 8.283a1 1 0 1 0 1.414 1.414l3.98-3.99A.997.997 0 0 0 5.99 5z"/></symbol><symbol id="spectrum-css-icon-ChevronRightSmall" viewBox="0 0 6 8"><path d="M5.5 4a.747.747 0 0 0-.22-.53C4.703 2.862 3.242 1.5 2.04.23A.75.75 0 1 0 .98 1.29L3.69 4 .98 6.71a.75.75 0 1 0 1.06 1.06l3.24-3.24A.747.747 0 0 0 5.5 4z"/></symbol><symbol id="spectrum-css-icon-ChevronUpSmall" viewBox="0 0 8 6"><path d="M4 .5a.747.747 0 0 0-.53.22C2.862 1.297 1.5 2.758.23 3.96a.75.75 0 1 0 1.06 1.06L4 2.31l2.71 2.71a.75.75 0 1 0 1.06-1.06L4.53.72A.747.747 0 0 0 4 .5z"/></symbol><symbol id="spectrum-css-icon-CornerTriangle" viewBox="0 0 5 5"><path d="M4.74.01a.25.25 0 0 0-.177.073l-4.48 4.48a.25.25 0 0 0 .177.427h4.48a.25.25 0 0 0 .25-.25V.26a.25.25 0 0 0-.25-.25z"/></symbol><symbol id="spectrum-css-icon-CrossLarge" viewBox="0 0 12 12"><path d="M11.697 10.283L7.414 6l4.283-4.283A1 1 0 1 0 10.283.303L6 4.586 1.717.303A1 1 0 1 0 .303 1.717L4.586 6 .303 10.283a1 1 0 1 0 1.414 1.414L6 7.414l4.283 4.283a1 1 0 1 0 1.414-1.414z"/></symbol><symbol id="spectrum-css-icon-CrossMedium" viewBox="0 0 8 8"><path d="M7.77 6.71L5.06 4l2.71-2.71A.75.75 0 1 0 6.71.23L4 2.94 1.29.23A.75.75 0 1 0 .23 1.29L2.94 4 .23 6.71a.75.75 0 1 0 1.06 1.06L4 5.06l2.71 2.71a.75.75 0 1 0 1.06-1.06z"/></symbol><symbol id="spectrum-css-icon-CrossSmall" viewBox="0 0 8 8"><path d="M7.317 6.433L4.884 4l2.433-2.433a.625.625 0 1 0-.884-.884L4 3.116 1.567.683a.625.625 0 1 0-.884.884L3.116 4 .683 6.433a.625.625 0 1 0 .884.884L4 4.884l2.433 2.433a.625.625 0 0 0 .884-.884z"/></symbol><symbol id="spectrum-css-icon-DashSmall" viewBox="0 0 10 10"><path d="M8 4H2a1 1 0 0 0 0 2h6a1 1 0 0 0 0-2z"/></symbol><symbol id="spectrum-css-icon-DoubleGripper" viewBox="0 0 16 4"><path d="M15.49 3H.51a.5.5 0 1 0 0 1h14.98a.5.5 0 1 0 0-1z"/><path d="M.51 1h14.98a.5.5 0 0 0 0-1H.51a.5.5 0 0 0 0 1z"/></symbol><symbol id="spectrum-css-icon-HelpMedium" viewBox="0 0 18 18"><path d="M9 1a8 8 0 1 0 8 8 8 8 0 0 0-8-8zm1.3 12.3a1.222 1.222 0 0 1-.3.9 1.223 1.223 0 0 1-.9.3 1.2 1.2 0 0 1 0-2.4c.8 0 1.3.5 1.2 1.2zm.1-4.5c-.4.4-.8.8-.8 1.2a1.135 1.135 0 0 0 .3.8v.1a.098.098 0 0 1-.096.1H8.4a.229.229 0 0 1-.2-.1 1.666 1.666 0 0 1-.4-1.1 2.772 2.772 0 0 1 1-1.7 2.772 2.772 0 0 0 1-1.7c0-.5-.4-1.1-1.4-1.1a5.018 5.018 0 0 0-2 .4h-.2V4.3c0-.1 0-.2.1-.2a6.183 6.183 0 0 1 2.4-.5c1.9 0 3.1 1.1 3.1 2.7a3.704 3.704 0 0 1-1.4 2.5z"/></symbol><symbol id="spectrum-css-icon-HelpSmall" viewBox="0 0 14 14"><path d="M7 .778A6.222 6.222 0 1 0 13.222 7 6.222 6.222 0 0 0 7 .778zm.018 10.452a1.046 1.046 0 1 1-.08-2.091q.04-.002.08 0a1.019 1.019 0 0 1 1.087.946q.003.046.002.092a1.004 1.004 0 0 1-1.09 1.053zm1.387-4.985l-.078.078c-.307.322-.655.687-.655.913a1.078 1.078 0 0 0 .14.525l.056.108-.044.167a.24.24 0 0 1-.221.147H6.56a.338.338 0 0 1-.252-.091 1.6 1.6 0 0 1-.329-.982 2.378 2.378 0 0 1 .864-1.61c.078-.086.156-.164.224-.234.245-.252.395-.416.395-.59 0-.119 0-.483-.695-.483a2.3 2.3 0 0 0-1.229.357.233.233 0 0 1-.254-.008l-.092-.066-.022-.175V3.174a.342.342 0 0 1 .156-.319A3.216 3.216 0 0 1 7 2.425a1.985 1.985 0 0 1 2.14 2.051 2.385 2.385 0 0 1-.735 1.769z"/></symbol><symbol id="spectrum-css-icon-InfoMedium" viewBox="0 0 18 18"><path d="M9 1a8 8 0 1 0 8 8 8 8 0 0 0-8-8zm-.15 2.15a1.359 1.359 0 0 1 1.431 1.283q.004.064.001.129A1.332 1.332 0 0 1 8.85 5.994a1.353 1.353 0 0 1-1.432-1.433 1.359 1.359 0 0 1 1.304-1.412q.064-.002.128.001zM11 13.5a.5.5 0 0 1-.5.5h-3a.5.5 0 0 1-.5-.5v-1a.5.5 0 0 1 .5-.5H8V9h-.5a.5.5 0 0 1-.5-.5v-1a.5.5 0 0 1 .5-.5h2a.5.5 0 0 1 .5.5V12h.5a.5.5 0 0 1 .5.5z"/></symbol><symbol id="spectrum-css-icon-InfoSmall" viewBox="0 0 14 14"><path d="M7 .778A6.222 6.222 0 1 0 13.222 7 6.222 6.222 0 0 0 7 .778zM6.883 2.45a1.057 1.057 0 0 1 1.113.998q.003.05.001.1a1.036 1.036 0 0 1-1.114 1.114A1.052 1.052 0 0 1 5.77 3.547 1.057 1.057 0 0 1 6.784 2.45q.05-.002.1.001zm1.673 8.05a.389.389 0 0 1-.39.389H5.834a.389.389 0 0 1-.389-.389v-.778a.389.389 0 0 1 .39-.389h.388V7h-.389a.389.389 0 0 1-.389-.389v-.778a.389.389 0 0 1 .39-.389h1.555a.389.389 0 0 1 .389.39v3.5h.389a.389.389 0 0 1 .389.388z"/></symbol><symbol id="spectrum-css-icon-Magnifier" viewBox="0 0 16 16"><path d="M15.77 14.71l-4.534-4.535a6.014 6.014 0 1 0-1.06 1.06l4.533 4.535a.75.75 0 1 0 1.061-1.06zM6.5 11A4.5 4.5 0 1 1 11 6.5 4.505 4.505 0 0 1 6.5 11z"/></symbol><symbol id="spectrum-css-icon-SkipLeft" viewBox="0 0 9 10"><path d="M8.697 8.283L5.414 5l3.283-3.283A1 1 0 1 0 7.283.303l-3.99 3.99a1 1 0 0 0 0 1.414l3.99 3.99a1 1 0 1 0 1.414-1.414z"/><path d="M1 .01a1 1 0 0 0-1 1v7.98a1 1 0 0 0 2 0V1.01a1 1 0 0 0-1-1z"/></symbol><symbol id="spectrum-css-icon-SkipRight" viewBox="0 0 9 10"><path d="M8 .01a1 1 0 0 0-1 1v7.98a1 1 0 1 0 2 0V1.01a1 1 0 0 0-1-1z"/><path d="M6 5a.997.997 0 0 0-.293-.707L1.717.303A1 1 0 1 0 .303 1.717L3.586 5 .303 8.283a1 1 0 1 0 1.414 1.414l3.99-3.99A.997.997 0 0 0 6 5z"/></symbol><symbol id="spectrum-css-icon-Star" viewBox="0 0 18 18"><path d="M9.241.3l2.161 5.715 6.106.289a.255.255 0 0 1 .147.454l-4.77 3.823 1.612 5.9a.255.255 0 0 1-.386.28L9.002 13.4l-5.11 3.358a.255.255 0 0 1-.386-.28l1.612-5.9-4.77-3.821A.255.255 0 0 1 .495 6.3l6.107-.285L8.763.3a.255.255 0 0 1 .478 0z"/></symbol><symbol id="spectrum-css-icon-StarOutline" viewBox="0 0 18 18"><path d="M9.031 2.541l1.777 4.753 5.11.241-3.987 3.2 1.336 4.913-4.266-2.782-4.282 2.808 1.352-4.937-3.987-3.2 5.1-.245zM9.042.412a.369.369 0 0 0-.349.239L6.486 6.326l-6.1.293a.375.375 0 0 0-.217.667l4.762 3.821L3.318 17a.376.376 0 0 0 .362.475.371.371 0 0 0 .2-.063l5.121-3.351 5.095 3.324a.371.371 0 0 0 .2.062.376.376 0 0 0 .363-.475l-1.595-5.866 4.767-3.826a.375.375 0 0 0-.217-.667l-6.1-.287L9.393.655a.369.369 0 0 0-.351-.243z"/></symbol><symbol id="spectrum-css-icon-SuccessMedium" viewBox="0 0 18 18"><path d="M9 1a8 8 0 1 0 8 8 8 8 0 0 0-8-8zm5.333 4.54l-6.324 8.13a.6.6 0 0 1-.437.23h-.037a.6.6 0 0 1-.425-.176l-3.893-3.9a.6.6 0 0 1 0-.849l.663-.663a.6.6 0 0 1 .848 0L7.4 10.991l5.256-6.754a.6.6 0 0 1 .843-.1l.728.566a.6.6 0 0 1 .106.837z"/></symbol><symbol id="spectrum-css-icon-SuccessSmall" viewBox="0 0 14 14"><path d="M7 .778A6.222 6.222 0 1 0 13.222 7 6.222 6.222 0 0 0 7 .778zm4.148 3.53l-4.919 6.324a.467.467 0 0 1-.34.18h-.028a.467.467 0 0 1-.331-.138L2.502 7.641a.467.467 0 0 1 0-.66l.516-.516a.467.467 0 0 1 .66 0l2.078 2.084 4.088-5.254a.467.467 0 0 1 .655-.078l.566.44a.467.467 0 0 1 .083.652z"/></symbol><symbol id="spectrum-css-icon-TripleGripper" viewBox="0 0 10 7"><path d="M9.49 6H.51a.5.5 0 1 0 0 1h8.98a.5.5 0 0 0 0-1z"/><path d="M9.49 3H.51a.5.5 0 1 0 0 1h8.98a.5.5 0 0 0 0-1zM.51 1h8.98a.5.5 0 0 0 0-1H.51a.5.5 0 0 0 0 1z"/></symbol></svg>