<svg fill="none" height="18" viewBox="0 0 18 18" width="18" xmlns="http://www.w3.org/2000/svg"><circle cx="9" cy="9" r="7.5" stroke="#fff"/><path clip-rule="evenodd" d="m8.50696 7.76616c-.29648.19184-.54896.44432-.7408.7408l-2.53214 3.91334c-.14639.2262.11946.4921.3457.3457l3.91332-2.5322c.29648-.1918.54896-.44428.74076-.74076l2.5322-3.91332c.1464-.22624-.1195-.49209-.3457-.3457zm-.1355 1.86238c.34713.34714.90995.34714 1.25708 0 .34713-.34713.34713-.90994 0-1.25707-.34713-.34714-.90995-.34714-1.25708 0-.34713.34713-.34713.90994 0 1.25707z" fill="#fff" fill-rule="evenodd"/></svg>