<svg fill="none" height="19" viewBox="0 0 18 19" width="18" xmlns="http://www.w3.org/2000/svg"><g stroke="#fff"><path d="m3.10068 15.145 4.43057-6.78789c.14513-.22235.43875-.29248.6687-.15972l.9545.55109c.22995.13276.31602.4221.19603.65897l-3.66317 7.23095c-.19447.3838-.67138.5257-1.04405.3105l-1.28953-.7445c-.37268-.2151-.48826-.6991-.25305-1.0594z"/><path d="m15.6588 6.55835.2029.11714c.3996.23073.5365.74173.3058 1.14136l-1.7256 2.98885c-.2307.3996-.7417.5366-1.1414.3058l-.2029-.1171c-.5496-.3173-.9195-.873-1.0002-1.50243-.0583-.45443-.5413-.72136-.957-.52893l-.5135.23763c-.2214.10246-.4788.09085-.69-.03112l-2.88678-1.66668c-.30696-.17722-.44794-.54513-.33802-.8821l.49751-1.52522c.07328-.22465-.01947-.47445-.23658-.5677-1.67436-.71913-2.79527.50129-3.21877-.11079-.45336-.65524 2.98649-3.00754 5.79921-1.38361l2.94533 1.70051c.2113.12197.3492.3386.3712.58154l.0509.56349c.0413.4563.5139.74109.9366.56434.5855-.24482 1.2517-.20228 1.8013.11502z"/></g></svg>