<svg fill="none" height="19" viewBox="0 0 18 19" width="18" xmlns="http://www.w3.org/2000/svg" xmlns:xlink="http://www.w3.org/1999/xlink"><clipPath id="a"><path d="m0 .578949h18v18h-18z"/></clipPath><g clip-path="url(#a)"><path d="m14.5312 13.5789h-9.0312c-.82843 0-1.5.6716-1.5 1.5 0 .8285.67157 1.5 1.5 1.5h9.0312" stroke="#fff" stroke-linecap="round" stroke-linejoin="round"/><path d="m4.50499 2.58399.00498-.49998zm9.50001.09476.005-.49997zm-.005 10.90015c0 .2762.2239.5.5.5s.5-.2238.5-.5zm-9.5-10.49494 9.5.09477.01-.99995-9.50003-.09477zm9.5.09477v10.40017h1v-10.40017zm-9.5 11.90017v-11.99494h-1v11.99494zm9.5-11.90017h1c0-.5484-.4417-.99448-.99-.99995zm-9.49003-1.09472c-.55615-.00555-1.00997.44377-1.00997.99995h1z" fill="#fff"/><g stroke="#fff"><path d="m14.5 16.5789c-.8284 0-1-1-1-1.5s.1716-1.5 1-1.5"/><path d="m6.5 2.57895v10.99995"/></g></g></svg>