<svg fill="none" height="19" viewBox="0 0 18 19" width="18" xmlns="http://www.w3.org/2000/svg"><path d="m14.4593 8.56464c.3652-.2996.9012-.26006 1.2184.08988.3172.34994.3042.88722-.0297 1.22131l-5.2054 5.20867c-.121.1211-.3251.0875-.401-.0659l-.30208-.6113c-.08247-.1668-.20987-.3074-.36786-.4058l-.57879-.3604c-.14529-.0905-.15874-.2969-.02642-.4055z" stroke="#fff"/><path d="m8.36526 16.1419c-.04233.8634-1.25671 1.3231-3.22142.8806-.4308-.097.70453-.3116.84344-.9971s.38495-1.0196 1.04161-.9874 1.36442.5318 1.33637 1.1039z" stroke="#fff"/><path d="m6.91118 13.1599c.27614 0 .5-.2239.5-.5 0-.2762-.22386-.5-.5-.5zm4.41122-5.08971c0 .27614.2238.5.5.5.2761 0 .5-.22386.5-.5zm-8.3224-4.5h7.8224v-1h-7.8224zm-.5 8.08971v-7.58971h-1v7.58971zm4.41118.5h-3.91118v1h3.91118zm4.41122-8.08971v4h1v-4zm-9.8224 7.58971c0 .8284.67157 1.5 1.5 1.5v-1c-.27614 0-.5-.2239-.5-.5zm9.3224-8.08971c.2761 0 .5.22386.5.5h1c0-.82843-.6716-1.5-1.5-1.5zm-7.8224-1c-.82843 0-1.5.67158-1.5 1.5h1c0-.27614.22386-.5.5-.5z" fill="#fff"/><g stroke="#fff" stroke-linecap="round" stroke-linejoin="round"><path d="m6.91118 9.85551-1.62091-1.59499c-.39471-.38841-1.03759-.38965-1.43387-.00276l-1.8564 1.81244"/><path d="m11.6416 7.21984-1.88668-1.53531c-.42045-.34216-1.04336-.29588-1.40595.10444l-2.42003 2.67187"/></g></svg>