<svg fill="none" height="19" viewBox="0 0 18 19" width="18" xmlns="http://www.w3.org/2000/svg"><g stroke="#fff" stroke-linecap="round"><path d="m9.014 2.41519c3.9274 0 7.1111 3.18376 7.1111 7.11112 0 3.92739-3.1837 7.11109-7.1111 7.11109-3.31349 0-6.09767-2.2662-6.88708-5.3333"/><path d="m9.014 7.74854c.98184 0 1.7778.79593 1.7778 1.77777 0 .98189-.79596 1.77779-1.7778 1.77779-.53097 0-1.00758-.2328-1.33333-.6019"/><path d="m9.014 5.08185c2.4546 0 4.4444 1.98984 4.4444 4.44444 0 2.45461-1.9898 4.44441-4.4444 4.44441s-4.44444-1.9898-4.44444-4.44441c0-1.00073.33074-1.92421.88888-2.6671"/></g></svg>