<svg width="18" height="18" viewBox="0 0 18 18" fill="none" xmlns="http://www.w3.org/2000/svg">
<path d="M11.7274 4V3.5C11.7171 3.5 11.7067 3.50032 11.6964 3.50097L11.7274 4ZM6.27257 4L6.30364 3.50097C6.2933 3.50032 6.28294 3.5 6.27257 3.5L6.27257 4ZM3 7.45564H2.5H3ZM9 15L8.71125 15.4082C8.88355 15.53 9.11383 15.5306 9.28673 15.4096L9 15ZM15 7.45564H14.5H15ZM9.00869 5.71289L9.44016 5.96555L9.00869 5.71289ZM8.99131 5.71289L8.55984 5.96555L8.99131 5.71289ZM11.6964 3.50097C11.0582 3.5407 10.4402 3.7428 9.89529 4.08801L10.4304 4.93277C10.8353 4.67626 11.291 4.52814 11.7585 4.49903L11.6964 3.50097ZM9.89529 4.08801C9.35597 4.42967 8.90474 4.90092 8.57722 5.46024L9.44016 5.96555C9.68918 5.54028 10.0294 5.18682 10.4304 4.93277L9.89529 4.08801ZM9.42278 5.46024C9.09526 4.90092 8.64403 4.42967 8.10471 4.08801L7.56956 4.93277C7.97059 5.18682 8.31082 5.54028 8.55984 5.96555L9.42278 5.46024ZM8.10471 4.08801C7.55978 3.7428 6.94184 3.5407 6.30364 3.50097L6.2415 4.49903C6.70904 4.52814 7.16466 4.67626 7.56956 4.93277L8.10471 4.08801ZM6.27257 3.5C5.26297 3.5 4.30061 3.92375 3.59548 4.66833L4.32155 5.35594C4.84387 4.8044 5.54629 4.5 6.27257 4.5L6.27257 3.5ZM3.59548 4.66833C2.89122 5.41198 2.5 6.41506 2.5 7.45564H3.5C3.5 6.66324 3.79836 5.9084 4.32155 5.35594L3.59548 4.66833ZM2.5 7.45564C2.5 8.42267 2.93482 9.40502 3.51877 10.2999C4.10845 11.2035 4.88593 12.0718 5.6496 12.822C6.41528 13.5742 7.17904 14.2193 7.75038 14.6758C8.03643 14.9044 8.27518 15.0864 8.44304 15.2118C8.52699 15.2745 8.59327 15.323 8.63894 15.3562C8.66178 15.3727 8.67946 15.3855 8.69164 15.3942C8.69772 15.3985 8.70243 15.4019 8.70571 15.4042C8.70736 15.4054 8.70864 15.4063 8.70957 15.407C8.71003 15.4073 8.7104 15.4076 8.71068 15.4078C8.71082 15.4079 8.71096 15.408 8.71103 15.408C8.71115 15.4081 8.71125 15.4082 9 15C9.28875 14.5918 9.2888 14.5918 9.28883 14.5918C9.28881 14.5918 9.28881 14.5918 9.28877 14.5918C9.28869 14.5917 9.28851 14.5916 9.28825 14.5914C9.28772 14.591 9.28683 14.5904 9.28559 14.5895C9.2831 14.5878 9.27921 14.585 9.27394 14.5812C9.26341 14.5737 9.2474 14.5622 9.22629 14.5468C9.18407 14.5162 9.12145 14.4703 9.04134 14.4105C8.88107 14.2908 8.65107 14.1155 8.37462 13.8946C7.82096 13.4522 7.08472 12.83 6.3504 12.1086C5.61407 11.3852 4.89155 10.5737 4.35623 9.75336C3.81518 8.92427 3.5 8.13859 3.5 7.45564H2.5ZM9 15C9.28673 15.4096 9.28683 15.4095 9.28695 15.4094C9.28702 15.4094 9.28716 15.4093 9.28731 15.4092C9.28759 15.409 9.28796 15.4087 9.28843 15.4084C9.28936 15.4077 9.29065 15.4068 9.29229 15.4057C9.29559 15.4034 9.3003 15.4 9.3064 15.3957C9.31859 15.3871 9.3363 15.3744 9.35916 15.358C9.40487 15.3252 9.47119 15.2771 9.55519 15.2149C9.72314 15.0907 9.96199 14.9101 10.2481 14.6833C10.8197 14.2301 11.5837 13.5889 12.3497 12.8393C13.1137 12.0916 13.8916 11.2243 14.4815 10.3181C15.0662 9.42005 15.5 8.43263 15.5 7.45564H14.5C14.5 8.15081 14.1838 8.94251 13.6435 9.77253C13.1084 10.5944 12.3863 11.4043 11.6503 12.1246C10.9163 12.843 10.1803 13.4608 9.62685 13.8997C9.35051 14.1188 9.12061 14.2925 8.96044 14.411C8.88037 14.4702 8.81779 14.5156 8.77561 14.5459C8.75452 14.5611 8.73854 14.5725 8.72802 14.5799C8.72277 14.5837 8.71888 14.5864 8.7164 14.5881C8.71517 14.589 8.71428 14.5896 8.71376 14.59C8.7135 14.5902 8.71332 14.5903 8.71324 14.5904C8.7132 14.5904 8.71321 14.5904 8.71319 14.5904C8.71322 14.5904 8.71327 14.5904 9 15ZM15.5 7.45564C15.5 6.41506 15.1088 5.41198 14.4045 4.66833L13.6784 5.35594C14.2016 5.9084 14.5 6.66324 14.5 7.45564L15.5 7.45564ZM14.4045 4.66833C13.6994 3.92375 12.737 3.5 11.7274 3.5V4.5C12.4537 4.5 13.1561 4.8044 13.6784 5.35594L14.4045 4.66833ZM8.57722 5.46024C8.76645 5.13708 9.23354 5.13707 9.42278 5.46024L8.55984 5.96555C8.75684 6.30198 9.24317 6.30197 9.44016 5.96555L8.57722 5.46024Z" fill="#252525"/>
</svg>
