<svg fill="none" height="19" viewBox="0 0 18 19" width="18" xmlns="http://www.w3.org/2000/svg"><g stroke="#fff" stroke-linecap="round"><path d="m3 8.76022c0-.55228.44772-1 1-1h8c.5523 0 1 .44772 1 1v1.99998c0 2.7614-2.2386 5-5 5-2.76142 0-5-2.2386-5-5z"/><path d="m13 11.7602h1c1.1046 0 2-.8954 2-1.99998 0-1.10457-.8954-2-2-2h-2"/><path d="m5.5 2.26022-.18377.36755c-.18885.37769-.11483.83386.18377 1.13245.2986.2986.37262.75476.18377 1.13246l-.18377.36754"/><path d="m10.5 2.26022-.1838.36755c-.1888.37769-.1148.83386.1838 1.13245.2986.2986.3726.75476.1838 1.13246l-.1838.36754"/></g></svg>