<svg fill="none" height="19" viewBox="0 0 18 19" width="18" xmlns="http://www.w3.org/2000/svg"><path d="m2 6.37369c0-.55228.44772-1 1-1h2.48538c.32295 0 .62602-.15596.81374-.41876l.40176-.56247c.18772-.2628.49079-.41877.81374-.41877h2.97078c.3229 0 .626.15597.8137.41877l.4018.56247c.1877.2628.4908.41876.8137.41876h2.4854c.5523 0 1 .44772 1 1v7.10001c0 .5523-.4477 1-1 1h-12c-.55228 0-1-.4477-1-1z" stroke="#fff" stroke-linecap="round"/><path d="m11.75 9.72369c0 1.51881-1.2312 2.75001-2.75 2.75001-1.51878 0-2.75-1.2312-2.75-2.75001 0-1.51878 1.23122-2.75 2.75-2.75 1.5188 0 2.75 1.23122 2.75 2.75z" stroke="#fff" stroke-linecap="round"/><path d="m13 7.47369c0-.27614.2239-.5.5-.5s.5.22386.5.5c0 .27615-.2239.5-.5.5s-.5-.22385-.5-.5z" fill="#fff"/></svg>