<svg fill="none" height="19" viewBox="0 0 18 19" width="18" xmlns="http://www.w3.org/2000/svg"><path d="m2.23981 10.0514c-.12316-.16661-.00188-.40211.20526-.39861l.33103.0056c.15172.00256.30087.03963.43615.10838l1.48638.75543c.14992.0762.32811.0719.47421-.0114l2.44898-1.39651-3.94663-2.13807c-.37904-.20534-.33793-.76203.06716-.90947l.16589-.06038c.18627-.0678.38849-.07871.58097-.03134l6.52759 1.60629s3.0151-1.56976 3.8889-1.1345c.1265.06301.2284.14079.3102.22775.6186.65795-.2136 1.56319-1.04 1.92734-1.972.86886-5.84905 2.54349-9.28666 3.82789-.41503.1551-.88079.0138-1.14418-.3424z" fill="#fff"/><path d="m2.4388 16.1442h13.5" stroke="#fff" stroke-linecap="round"/></svg>