<svg fill="none" height="18" viewBox="0 0 18 18" width="18" xmlns="http://www.w3.org/2000/svg"><g stroke="#fff" stroke-linecap="round" stroke-linejoin="round"><path d="m7 10c0-1.65685 1.34315-3 3-3 .8885 0 1.6868.38625 2.2361 1m-3.44412 3.5c-.38578-.883-1.26682-1.5-2.29198-1.5-1.38071 0-2.5 1.1193-2.5 2.5s1.11929 2.5 2.5 2.5h7.5c1.1046 0 2-.8954 2-2s-.8954-2-2-2c-.5973 0-1.1335.2619-1.5.6771"/><path d="m3.38806 8.63477c-.69143-.63606-1.14384-1.5329-1.19614-2.54526-.106-2.05143 1.4711-3.80037 3.52253-3.90636 1.6632-.08594 3.12756.93444 3.67874 2.41698"/></g></svg>